<?xml version="1.0" standalone="no"?>
<!DOCTYPE svg PUBLIC "-//W3C//DTD SVG 20010904//EN"
 "http://www.w3.org/TR/2001/REC-SVG-20010904/DTD/svg10.dtd">
<svg version="1.0" xmlns="http://www.w3.org/2000/svg"
 width="800.000000pt" height="800.000000pt" viewBox="0 0 800.000000 800.000000"
 preserveAspectRatio="xMidYMid meet">
<metadata>
Created by potrace 1.14, written by Peter Selinger 2001-2017
</metadata>
<g transform="translate(0.000000,800.000000) scale(0.100000,-0.100000)"
fill="#000000" stroke="none">
<path d="M3219 7996 c-2 -2 -29 -7 -59 -10 -30 -4 -66 -9 -80 -11 -14 -2 -39
-6 -56 -9 -139 -22 -379 -109 -524 -191 -34 -19 -64 -35 -66 -35 -2 0 -22 -12
-43 -27 -21 -16 -49 -35 -61 -43 -222 -149 -455 -420 -577 -672 -49 -99 -107
-248 -118 -301 -2 -10 -7 -27 -10 -37 -16 -50 -45 -209 -52 -285 -26 -270 11
-555 104 -805 38 -102 122 -277 156 -324 4 -6 33 -48 65 -93 172 -245 407
-446 673 -575 49 -23 89 -46 89 -49 0 -4 -10 -10 -22 -14 -13 -4 -25 -8 -28
-9 -18 -6 -481 -242 -549 -280 -46 -25 -85 -46 -88 -46 -2 0 -29 -16 -59 -35
-30 -19 -56 -35 -59 -35 -3 0 -29 -16 -59 -35 -30 -19 -58 -35 -61 -35 -4 0
-12 -6 -20 -12 -7 -7 -43 -31 -79 -53 -36 -22 -66 -43 -66 -47 0 -5 -5 -8 -11
-8 -9 0 -175 -114 -189 -130 -3 -3 -25 -21 -50 -40 -25 -19 -50 -39 -56 -45
-6 -5 -40 -35 -74 -65 -118 -103 -231 -221 -304 -320 -22 -30 -44 -57 -47 -60
-10 -8 -129 -209 -138 -233 -5 -12 -18 -43 -29 -67 -34 -74 -61 -162 -88 -285
-26 -119 -26 -415 1 -550 2 -11 4 -25 4 -32 1 -6 11 -10 24 -8 12 2 42 6 67 9
25 3 61 8 80 11 19 3 55 7 79 10 25 3 54 7 65 10 12 2 44 7 71 10 76 8 137 16
165 21 14 3 50 7 80 10 73 6 80 9 75 36 -10 54 -17 148 -16 212 2 197 113 419
307 610 131 130 198 184 402 324 122 83 283 180 381 229 31 15 58 31 61 34 10
12 770 389 785 389 2 0 93 44 202 97 109 53 204 98 211 99 7 1 18 7 25 12 7 5
69 39 139 75 70 37 157 84 193 107 37 22 69 40 70 40 8 0 174 116 235 164 81
63 170 153 233 235 l48 62 -65 62 c-35 34 -122 116 -192 182 -70 66 -151 143
-181 172 l-54 52 -92 -60 c-79 -52 -123 -76 -222 -119 -26 -12 -151 -48 -190
-55 -154 -29 -334 -22 -480 17 -22 6 -44 11 -50 13 -5 1 -23 7 -38 13 -16 7
-30 12 -33 12 -23 0 -199 98 -269 150 -86 65 -275 283 -275 319 0 5 -4 11 -8
13 -31 13 -143 342 -126 370 3 4 2 8 -3 8 -12 0 -18 183 -8 260 4 25 8 59 9
75 7 64 55 213 94 295 29 59 106 179 141 220 66 77 82 92 227 210 7 5 15 6 18
3 3 -4 6 -1 6 5 0 7 6 12 14 12 8 0 16 3 18 8 9 20 204 106 268 118 14 2 36 7
50 11 14 3 32 8 40 10 64 16 261 20 355 9 50 -6 182 -39 220 -55 143 -58 287
-148 372 -230 35 -34 93 -101 156 -181 22 -27 117 -223 117 -240 0 -9 4 -20 9
-25 5 -6 17 -44 27 -85 23 -94 21 -86 23 -110 1 -12 8 -20 20 -20 15 0 414 89
521 117 14 3 34 8 44 10 11 2 42 10 71 18 l52 15 -34 128 c-63 237 -137 407
-254 582 -63 94 -75 109 -154 199 -157 179 -370 336 -585 434 -76 34 -107 48
-125 53 -5 2 -30 10 -55 19 -79 29 -228 65 -335 80 -45 7 -390 16 -396 11z"/>
<path d="M7245 5969 c-22 -4 -67 -10 -100 -14 -53 -6 -172 -22 -300 -40 -61
-9 -95 -13 -150 -20 -112 -13 -108 -10 -98 -68 14 -92 8 -276 -12 -342 -108
-359 -453 -674 -1145 -1047 -114 -61 -253 -132 -262 -132 -3 -1 -10 -4 -14 -9
-4 -4 -35 -20 -68 -36 -34 -16 -124 -59 -201 -96 -256 -123 -310 -149 -315
-150 -3 -1 -49 -23 -102 -48 -53 -26 -101 -47 -107 -47 -6 0 -11 -3 -11 -8 0
-6 -71 -42 -84 -42 -2 0 -32 -16 -66 -35 -34 -19 -68 -35 -75 -35 -7 0 -15 -3
-17 -7 -1 -5 -35 -25 -74 -45 -63 -32 -234 -131 -274 -158 -186 -123 -297
-221 -390 -341 -58 -75 -59 -76 -42 -100 9 -13 29 -34 43 -46 43 -37 370 -344
410 -386 17 -18 19 -17 84 28 233 163 499 233 765 201 97 -11 117 -15 161 -31
24 -8 50 -15 58 -15 18 0 254 -114 272 -132 8 -7 32 -26 54 -42 41 -30 172
-160 190 -188 6 -9 24 -35 41 -59 41 -58 85 -142 111 -209 32 -83 36 -95 38
-100 8 -29 19 -79 21 -92 1 -10 2 -19 4 -20 16 -20 19 -268 3 -364 -52 -328
-262 -626 -553 -786 -77 -43 -227 -97 -311 -113 -97 -19 -267 -26 -343 -14
-28 5 -67 11 -86 14 -119 19 -297 97 -418 183 -195 138 -380 409 -417 609 -2
16 -9 43 -14 61 -5 17 -7 32 -4 32 3 0 0 7 -7 15 -6 8 -9 19 -5 25 9 15 -33
12 -116 -9 -62 -15 -138 -33 -284 -66 -209 -46 -300 -73 -297 -86 2 -8 6 -29
8 -48 3 -18 9 -42 14 -52 6 -10 9 -22 8 -26 -4 -13 45 -170 79 -253 51 -125
171 -336 239 -420 74 -90 152 -174 210 -225 37 -33 78 -70 90 -81 43 -41 249
-171 339 -214 85 -40 251 -104 299 -115 11 -2 48 -11 81 -19 138 -33 200 -39
405 -40 185 0 241 4 361 29 152 32 282 75 416 137 51 23 228 123 247 139 6 5
42 32 80 61 38 28 76 58 86 67 9 9 34 32 56 52 90 82 226 246 284 344 13 22
29 43 34 47 6 4 7 8 2 8 -5 0 -2 8 6 18 48 53 169 359 194 487 2 11 6 31 9 45
50 227 50 513 -2 730 -8 36 -16 74 -18 85 -1 11 -3 20 -4 20 -2 0 -4 8 -6 18
-5 24 -35 115 -52 154 -7 17 -13 34 -13 38 0 27 -153 306 -171 313 -5 2 -9 8
-9 13 0 6 -16 31 -35 57 -175 234 -400 424 -652 550 -51 25 -93 49 -93 53 0 4
12 10 27 14 15 3 39 15 54 26 15 10 30 19 34 19 8 0 424 207 440 220 6 4 51
29 100 55 50 26 97 53 105 59 8 6 35 22 60 36 25 13 47 26 50 29 3 3 21 15 40
25 36 20 261 167 270 176 3 3 28 22 57 42 59 42 63 45 158 124 139 115 280
257 354 354 14 19 29 37 32 40 22 19 135 202 172 280 43 90 93 223 102 272 3
13 8 37 12 53 3 17 7 37 9 45 1 8 5 40 10 70 9 62 10 294 1 355 -3 22 -9 64
-13 93 -3 29 -9 54 -13 56 -3 1 -24 -1 -46 -5z"/>
</g>
</svg>
