<svg width="14" height="14" viewBox="0 0 14 14" fill="none" xmlns="http://www.w3.org/2000/svg">
<mask id="path-1-inside-1_34_246" fill="white">
<path fill-rule="evenodd" clip-rule="evenodd" d="M13.414 0.707L12.707 0L6.707 6L0.707 0L0 0.707L6.353 7.061H7.061L13.414 0.707ZM13.414 6.707L12.707 6L6.707 12L0.707 6L0 6.707L6.353 13.061H7.061L13.414 6.707Z"/>
</mask>
<path fill-rule="evenodd" clip-rule="evenodd" d="M13.414 0.707L12.707 0L6.707 6L0.707 0L0 0.707L6.353 7.061H7.061L13.414 0.707ZM13.414 6.707L12.707 6L6.707 12L0.707 6L0 6.707L6.353 13.061H7.061L13.414 6.707Z" fill="white"/>
<path d="M13.414 0.707L16.2426 3.5352L19.0706 0.706778L16.2424 -2.12143L13.414 0.707ZM12.707 0L15.5354 -2.82843L12.707 -5.65685L9.87857 -2.82843L12.707 0ZM6.707 6L3.87857 8.82843L6.707 11.6569L9.53543 8.82843L6.707 6ZM0.707 0L3.53543 -2.82843L0.707 -5.65685L-2.12143 -2.82843L0.707 0ZM0 0.707L-2.82843 -2.12143L-5.65663 0.706777L-2.82865 3.5352L0 0.707ZM6.353 7.061L3.52435 9.8892L4.69596 11.061H6.353V7.061ZM7.061 7.061V11.061H8.71804L9.88965 9.8892L7.061 7.061ZM13.414 6.707L16.2426 9.5352L19.0706 6.70678L16.2424 3.87857L13.414 6.707ZM12.707 6L15.5354 3.17157L12.707 0.343146L9.87857 3.17157L12.707 6ZM6.707 12L3.87857 14.8284L6.707 17.6569L9.53543 14.8284L6.707 12ZM0.707 6L3.53543 3.17157L0.707001 0.343146L-2.12143 3.17157L0.707 6ZM0 6.707L-2.82843 3.87857L-5.65663 6.70678L-2.82865 9.5352L0 6.707ZM6.353 13.061L3.52435 15.8892L4.69596 17.061H6.353V13.061ZM7.061 13.061V17.061H8.71804L9.88965 15.8892L7.061 13.061ZM16.2424 -2.12143L15.5354 -2.82843L9.87857 2.82843L10.5856 3.53543L16.2424 -2.12143ZM9.87857 -2.82843L3.87857 3.17157L9.53543 8.82843L15.5354 2.82843L9.87857 -2.82843ZM9.53543 3.17157L3.53543 -2.82843L-2.12143 2.82843L3.87857 8.82843L9.53543 3.17157ZM-2.12143 -2.82843L-2.82843 -2.12143L2.82843 3.53543L3.53543 2.82843L-2.12143 -2.82843ZM-2.82865 3.5352L3.52435 9.8892L9.18165 4.2328L2.82865 -2.1212L-2.82865 3.5352ZM6.353 11.061H7.061V3.061H6.353V11.061ZM9.88965 9.8892L16.2426 3.5352L10.5854 -2.1212L4.23235 4.2328L9.88965 9.8892ZM16.2424 3.87857L15.5354 3.17157L9.87857 8.82843L10.5856 9.53543L16.2424 3.87857ZM9.87857 3.17157L3.87857 9.17157L9.53543 14.8284L15.5354 8.82843L9.87857 3.17157ZM9.53543 9.17157L3.53543 3.17157L-2.12143 8.82843L3.87857 14.8284L9.53543 9.17157ZM-2.12143 3.17157L-2.82843 3.87857L2.82843 9.53543L3.53543 8.82843L-2.12143 3.17157ZM-2.82865 9.5352L3.52435 15.8892L9.18165 10.2328L2.82865 3.8788L-2.82865 9.5352ZM6.353 17.061H7.061V9.061H6.353V17.061ZM9.88965 15.8892L16.2426 9.5352L10.5854 3.8788L4.23235 10.2328L9.88965 15.8892Z" fill="white" mask="url(#path-1-inside-1_34_246)"/>
</svg>
