<svg fill="none" height="14" viewBox="0 0 13 14" width="13" xmlns="http://www.w3.org/2000/svg" xmlns:xlink="http://www.w3.org/1999/xlink"><mask id="a" fill="#fff"><path clip-rule="evenodd" d="m13.414.707-.707-.707-6 6-6-6-.707.707 6.353 6.354h.708zm0 6-.707-.707-6 6-6-6-.707.707 6.353 6.354h.708z" fill="#fff" fill-rule="evenodd"/></mask><g fill="#fff"><path clip-rule="evenodd" d="m13.414.707-.707-.707-6 6-6-6-.707.707 6.353 6.354h.708zm0 6-.707-.707-6 6-6-6-.707.707 6.353 6.354h.708z" fill-rule="evenodd"/><path d="m13.414.707 2.8286 2.8282 2.828-2.828422-2.8282-2.828208zm-.707-.707 2.8284-2.82843-2.8284-2.82842-2.82843 2.82842zm-6 6-2.82843 2.82843 2.82843 2.82847 2.82843-2.82847zm-6-6 2.82843-2.82843-2.82843-2.82842-2.82843 2.82842zm-.707.707-2.82843-2.82843-2.8282 2.828207 2.82798 2.828423zm6.353 6.354-2.82865 2.8282 1.17161 1.1718h1.65704zm.708 0v4h1.65704l1.17161-1.1718zm6.353-.354 2.8286 2.8282 2.828-2.82842-2.8282-2.82821zm-.707-.707 2.8284-2.82843-2.8284-2.828424-2.82843 2.828424zm-6 6-2.82843 2.8284 2.82843 2.8285 2.82843-2.8285zm-6-6 2.82843-2.82843-2.828429-2.828424-2.828431 2.828424zm-.707.707-2.82843-2.82843-2.8282 2.82821 2.82798 2.82842zm6.353 6.354-2.82865 2.8282 1.17161 1.1718h1.65704zm.708 0v4h1.65704l1.17161-1.1718zm9.1814-15.18243-.707-.707-5.65683 5.65686.70703.707zm-6.36383-.707-6 6 5.65686 5.65686 5.99997-6zm-.34314 6-6-6-5.65686 5.65686 6 6zm-11.65686-6-.707.707 5.65686 5.65686.707-.707zm-.70722 6.36363 6.353 6.354 5.6573-5.6564-6.353-6.354zm9.18165 7.5258h.708v-8h-.708zm3.53665-1.1718 6.35295-6.354-5.6572-5.6564-6.35305 6.354zm6.35275-6.01063-.707-.707-5.65683 5.65686.70703.707zm-6.36383-.707-6 6 5.65686 5.65683 5.99997-5.99997zm-.34314 6-6-6-5.65686 5.65686 6 5.99997zm-11.65686-6-.707.707 5.65686 5.65686.707-.707zm-.70722 6.36363 6.353 6.354 5.6573-5.6564-6.353-6.354zm9.18165 7.5258h.708v-8h-.708zm3.53665-1.1718 6.35295-6.354-5.6572-5.6564-6.35305 6.354z" mask="url(#a)"/></g></svg>