<svg xmlns="http://www.w3.org/2000/svg" viewBox="0 0 167.2 13.05">
  <defs>
    <style>
      .a {
        fill: #fff;
      }
    </style>
  </defs>
  <g>
    <path class="a" d="M27.454,4.66a1.861,1.861,0,0,0-1.873,1.9,1.874,1.874,0,1,0,3.747,0A1.862,1.862,0,0,0,27.454,4.66Z"/>
    <path class="a" d="M19.772,4.677h-.431V6.733h.431a1.034,1.034,0,1,0,0-2.056Z"/>
    <polygon class="a" points="135.312 7.172 136.506 7.172 135.909 5.787 135.312 7.172"/>
    <polygon class="a" points="94.332 7.172 95.525 7.172 94.929 5.787 94.332 7.172"/>
    <path class="a" d="M0,0V13.05H167.2V0ZM6.6,9.46H3.238v-5.8H6.5L6.67,4.7H4.4V5.97H6.256V7.023H4.4V8.407H6.761Zm7.782,0L14.1,6.683,12.355,9.576,10.6,6.683,10.316,9.46H9.139L9.81,3.342l2.545,4.17L14.9,3.342l.671,6.118Zm5.485-1.708h-.53V9.46H18.164v-5.8h1.707a2.056,2.056,0,1,1,0,4.1Zm7.583,1.824a3.018,3.018,0,1,1,3.084-3.017A3.017,3.017,0,0,1,27.454,9.576Zm10.733.133L36.33,5.961,34.465,9.709,32.343,3.657h1.235l1.1,3.258L36.33,3.557l1.65,3.366,1.094-3.266h1.244Zm7.781-.249H42.6v-5.8h3.267L46.034,4.7H43.763V5.97H45.62V7.023H43.763V8.407h2.362Zm5.395,0L49.871,7.081V9.46H48.7v-5.8h1.666A1.865,1.865,0,0,1,52.49,5.481,1.717,1.717,0,0,1,51.2,7.164l1.567,2.3Zm5.063,0H55.249V3.732l1.177-.149Zm7.874.249L60.437,6.078V9.46H59.26V3.409l3.863,3.614v-3.3l1.177-.14Zm7.616-.672a4.023,4.023,0,0,1-2.006.539,3.011,3.011,0,0,1-3.059-3.017,3.045,3.045,0,0,1,3.133-3.018,3.582,3.582,0,0,1,1.642.4l-.174,1.119a2.85,2.85,0,0,0-1.443-.414,1.907,1.907,0,0,0-1.965,1.915,1.878,1.878,0,0,0,1.915,1.906,2.131,2.131,0,0,0,.879-.166V7.089h-1.3l.157-1h2.222Zm8.8.539a3.019,3.019,0,1,1,.033-6.035,3.305,3.305,0,0,1,1.451.323l-.182,1.161a2.537,2.537,0,0,0-1.26-.357,1.886,1.886,0,1,0,0,3.772,2.532,2.532,0,0,0,1.334-.406L82.275,9.2A3.419,3.419,0,0,1,80.716,9.576Zm9.1-.116H88.639V7.072H86.044V9.46H84.867V3.723l1.177-.14V5.945h2.595V3.723l1.177-.14Zm6.7,0-.555-1.285H93.9L93.345,9.46H92.061l2.868-6.01,2.876,6.01Zm8.577.249-3.862-3.631V9.46h-1.178V3.409l3.863,3.614v-3.3l1.177-.14Zm7.616-.672a4.02,4.02,0,0,1-2.006.539,3.012,3.012,0,0,1-3.059-3.017,3.045,3.045,0,0,1,3.134-3.018,3.577,3.577,0,0,1,1.641.4l-.174,1.119a2.844,2.844,0,0,0-1.442-.414,1.907,1.907,0,0,0-1.965,1.915,1.878,1.878,0,0,0,1.915,1.906,2.134,2.134,0,0,0,.879-.166V7.089h-1.3l.158-1h2.221Zm6.075.423h-3.366v-5.8h3.266l.166,1.045h-2.271V5.97h1.857V7.023h-1.857V8.407h2.362Zm11.03,0-.282-2.777-1.749,2.893-1.757-2.893L125.74,9.46h-1.177l.671-6.118,2.545,4.17,2.545-4.17L131,9.46Zm7.682,0-.555-1.285h-2.056l-.555,1.285h-1.285l2.868-6.01,2.877,6.01Zm6.555,0-1.84-2.736V9.46H141.03V3.723l1.177-.14V6.235l1.757-2.578h1.376l-2,2.8,2.089,3Zm7.136,0h-3.366v-5.8h3.266l.166,1.045h-2.271V5.97h1.857V7.023h-1.857V8.407h2.362Zm5.394,0-1.492-2.379V9.46h-1.169v-5.8h1.667a1.865,1.865,0,0,1,2.122,1.824,1.717,1.717,0,0,1-1.293,1.683l1.566,2.3Zm5.428.116a3.32,3.32,0,0,1-1.873-.613l.182-1.119a2.75,2.75,0,0,0,1.675.7c.53,0,.812-.307.812-.68,0-.307-.174-.58-.738-.763l-.356-.116a1.769,1.769,0,0,1-1.426-1.749,1.719,1.719,0,0,1,1.865-1.691,3.523,3.523,0,0,1,1.6.423l-.174,1.094a2.92,2.92,0,0,0-1.442-.5.633.633,0,0,0-.713.622c0,.315.174.564.771.755l.356.116a1.785,1.785,0,0,1-.539,3.523Z"/>
    <path class="a" d="M155.442,4.635h-.357V6.5h.357a.948.948,0,0,0,1.069-.946C156.511,5.017,156.113,4.635,155.442,4.635Z"/>
    <path class="a" d="M50.227,4.635h-.356V6.5h.356A.947.947,0,0,0,51.3,5.555C51.3,5.017,50.9,4.635,50.227,4.635Z"/>
  </g>
</svg>
