<svg fill="none" height="221" viewBox="0 0 222 221" width="222" xmlns="http://www.w3.org/2000/svg"><g fill="#fff"><path d="m191.817 33.3042c-15.065-15.9826-34.531-27.13928-55.936-32.05922-21.405-4.91995-43.7888-3.3822-64.3201 4.41879-20.5314 7.80103-38.2884 21.51483-51.0257 39.40743-12.73733 17.8926-19.882855 39.1604-20.53302465 61.1138-.65016935 21.954 5.22421465 43.607 16.88032465 62.222 11.6561 18.615 28.5705 33.356 48.6042 42.358s42.2873 11.862 63.9463 8.217c21.659-3.644 41.75-13.629 57.734-28.693 21.405-20.217 33.916-48.1 34.787-77.531.872-29.4303-9.967-58.0046-30.137-79.4538zm12.046 56.6303c.903-.1267 1.822-.0625 2.699.1886.876.251 1.69.6833 2.389 1.2689.699.5855 1.267 1.3112 1.667 2.1302.401.819.625 1.7129.658 2.624.293 2.4385-.16 4.9088-1.3 7.0838l-4.154-.112c1.277-1.881 1.876-4.1397 1.7-6.4062-.262-1.9172-1.508-2.7895-2.86-2.6074-1.109.1534-2.016.9171-2.4 3.0451l-.246 1.3485c-.09 1.503-.702 2.927-1.73 4.027-1.029 1.1-2.409 1.806-3.903 1.996-.856.104-1.725.03-2.551-.216-.827-.247-1.593-.661-2.253-1.217-.659-.555-1.197-1.241-1.58-2.014-.383-.772-.603-1.6156-.646-2.477-.231-2.031.024-4.0879.745-6.0008l4.051.0927c-.844 1.6928-1.222 3.5798-1.096 5.4672.003.3265.074.6488.21.9456.136.2969.334.5615.579.7765.246.2148.535.3758.847.4708s.641.123.965.082c1.144-.153 1.959-.9041 2.352-3.16l.249-1.3485c.109-1.4888.726-2.8953 1.746-3.9849 1.021-1.0896 2.384-1.7966 3.862-2.0031zm-7.669-34.0491 2.537 3.5148-15.193 8.4133 3.92 7.0808-3.917 1.4411-5.698-10.2889zm-56.605 75.4096c1.138 5.919-.119 12.048-3.497 17.041s-8.6 8.44-14.519 9.585c-1.448.279-2.919.42-4.393.422-5.129.009-10.109-1.725-14.123-4.918-4.014-3.194-6.8232-7.656-7.9667-12.656l-.3579-1.525 8.7806-2.054.358 1.527c.688 3.017 2.382 5.711 4.802 7.639 2.421 1.928 5.425 2.976 8.52 2.973.895-.001 1.788-.086 2.668-.256 3.359-.644 6.357-2.518 8.408-5.256 2.05-2.737 3.006-6.141 2.681-9.545-.326-3.405-1.91-6.566-4.442-8.865s-5.831-3.571-9.252-3.567c-.882.002-1.763.087-2.629.255-1.891.367-3.684 1.129-5.26 2.237l-1.045.738-6.234-5.905.856-1.115c2.931-3.834 9.197-6.79 16.444-10.225 11.321-5.349 25.406-12.0047 24.163-21.335l-.211-1.5529 8.947-1.195.201 1.5497c.112.8316.17 1.6693.176 2.5083v.2141c-.077 13.1008-14.059 20.6318-26.582 26.6168 3.448 1.452 6.485 3.732 8.842 6.638s3.96 6.348 4.668 10.022zm-36.852-36.5547c.883 0 1.765-.0834 2.633-.2492 1.89-.3653 3.682-1.1276 5.256-2.2368l1.045-.7317 6.231 5.8954-.853 1.1183c-2.93 3.8347-9.196 6.7967-16.444 10.2247-11.3206 5.346-25.4089 11.999-24.1627 21.335l.2109 1.55-8.947 1.201-.2077-1.556c-1.9843-14.8 13.0402-22.948 26.4095-29.336-4.4979-1.892-8.268-5.1806-10.7534-9.3799s-3.5543-9.0866-3.0489-13.94 2.5583-9.4156 5.8556-13.0128c3.2973-3.5971 7.6641-6.0384 12.4554-6.9634 1.4489-.2802 2.9213-.4225 4.3963-.4249 5.129-.0084 10.109 1.7262 14.122 4.9194 4.014 3.1931 6.823 7.6553 7.968 12.6547l.358 1.5242-8.781 2.0514-.358-1.5274c-.688-3.0173-2.381-5.7112-4.802-7.6395-2.42-1.9282-5.424-2.9763-8.519-2.9721-.897.0032-1.791.0898-2.672.2588-3.3553.648-6.3491 2.5234-8.3964 5.2601-2.0474 2.7366-3.0012 6.138-2.6755 9.5401.3258 3.4021 1.9078 6.5607 4.4373 8.8591 2.5294 2.2984 5.8247 3.5717 9.2426 3.5711zm78.998-56.8412 3.276 2.8374-12.865 11.6788 5.432 5.9944-3.479 2.3006-7.899-8.7136zm-16.462-14.1808-2.876 24.1916-3.994-2.5306.802-5.055-6.349-4.0261-4.231 2.8758-3.968-2.5179zm-39.987-14.12323 11.705 2.37733-.166 3.8631-8.139-1.6552-.923 4.5437 6.652 1.3549-.77 3.7704-6.649-1.3548-1.01 4.9591 8.465 1.7223-1.33 3.6586-12.059-2.4508zm-20.05-.66782c.95-.18194 1.929-.15951 2.87.0658.941.22532 1.824.64836 2.589 1.24105.765.5926 1.396 1.3414 1.849 2.1964.454.855.721 1.7968.782 2.7627.089 1.4059-.298 2.8007-1.099 3.9599-.8 1.1592-1.968 2.0154-3.314 2.4307l6.148 8.0969-5.112.2589-5.893-8.4165.432 8.6849-4.256.2204-1.0804-21.1944zm-28.0428 4.85365 17.2293 17.2259-4.4735 1.5753-3.4637-3.7513-7.0905 2.5051-.3515 5.1125-4.432 1.5657zm-26.7067 14.9572 2.9301 2.5243-6.3396 5.3649 3.0005 3.5372 5.1764-4.3871 2.4892 2.9333-5.1797 4.3903 3.2721 3.8599 6.5888-5.5854 2.0482 3.3104-9.3879 7.9563-13.7145-16.1842zm-31.5381 38.6312 12.3117 2.5563-7.5411-11.4073 13.6665.9874-8.2823-9.4709 2.2943-3.9238 15.1523 17.8937-15.2354-1.0577 8.375 12.8068-23.0065-4.4734zm-8.6275 31.886c.1585-1.4663.6091-2.886 1.3253-4.1753.7162-1.2892 1.6835-2.4219 2.8448-3.3311 1.1612-.9092 2.4928-1.5766 3.9163-1.9626 1.4234-.386 2.9098-.483 4.3713-.285 1.4615.1979 2.8685.6866 4.138 1.4374 1.2695.7507 2.3757 1.7482 3.2532 2.9335.8776 1.1853 1.5088 2.5345 1.8563 3.9678s.4043 2.922.167 4.377c-.2235 1.823-.8583 3.571-1.8565 5.113l-4.1348-1.211c1.003-1.276 1.6531-2.794 1.8853-4.4.1371-.908.0918-1.8336-.1334-2.7235-.2252-.8898-.6257-1.7258-1.1781-2.4589s-1.2455-1.3486-2.0388-1.8104c-.7932-.4619-1.6707-.7608-2.5809-.8792-.9103-.1184-1.835-.054-2.7201.1895-.885.2434-1.7125.6611-2.4341 1.2284-.7216.5674-1.3227 1.273-1.7681 2.0756-.4454.8027-.7262 1.6861-.8258 2.5985-.1944 1.724.099 3.467.8468 5.033l-4.2978.115c-.6717-1.866-.8897-3.865-.6359-5.8317zm2.339 32.4167 8.5923-1.528-1.6616-9.336-8.5891 1.53-.7541-4.24 20.6452-3.671 1.259 4.153-8.5061 1.505 1.6584 9.337 7.9884-1.422 1.259 4.154-21.1309 3.758zm14.2002 34.141-2.2048-4.176 3.1953-3.988-3.5149-6.643-5.0965.393-2.1921-4.154 24.3134-.977zm18.9995 3.576-8.6274 8.857-3.0836-3 15.424-15.846.9043 19.31 8.4101-8.628 3.4414 2.63-15.6156 16.044zm34.3436 19.207c-1.0014-1.572-2.4076-2.844-4.0709-3.684-.8278-.437-1.735-.703-2.6676-.782-.9327-.079-1.8717.031-2.7611.323-.8894.291-1.711.759-2.4159 1.374-.7049.616-1.2786 1.368-1.6871 2.21-.4189.822-.6681 1.719-.7325 2.64-.0644.92.0571 1.844.3574 2.716s.7732 1.675 1.3904 2.36c.6173.686 1.3663 1.24 2.2024 1.63.9784.508 2.0531.805 3.1538.869l1.946-3.975-4.2722-2.096 2.1313-3.036 7.2982 3.573-4.7515 9.691c-2.571.176-5.143-.328-7.4579-1.46-1.3233-.623-2.5092-1.504-3.4884-2.591-.9792-1.086-1.7322-2.357-2.215-3.738s-.6857-2.844-.5968-4.304c.0888-1.46.4675-2.888 1.1141-4.2.6634-1.324 1.5845-2.503 2.7093-3.468 1.1249-.964 2.4309-1.694 3.8415-2.147 1.4106-.452 2.8975-.619 4.3734-.49s2.9112.551 4.2218 1.242c1.876.919 3.5051 2.273 4.7514 3.949zm22.8118 4.093-8.1739-1.435-.802 4.563 6.6819 1.173-.668 3.79-6.6818-1.176-.8723 4.984 8.5001 1.493-1.2339 3.687-12.1104-2.125 3.6715-20.884 11.7528 2.064zm43.31 11.385-3.835-9.452-3.173 11.938-9.129-8.349 1.857 10.03-4.129 1.201-3.911-22.143 13.197 12.02 4.671-17.235 8.628 20.769zm27.543-15.699-4.368-2.655-6.135 4.336 1.048 5.007-3.834 2.707-4.109-24 21.262 11.877zm18.853-19.906-12.021-.837 7.893 6.144-2.646 3.397-16.542-12.884 2.236-3.71 7.65 5.969-3.489-10.864 3.09-3.968 3.594 12.052 13.347.713zm8.985-14.827-19.594-8.141 4.579-11.027 3.764.901-3.195 7.669 4.282 1.779 2.604-6.269 3.557 1.476-2.608 6.27 4.678 1.946 3.314-7.989 3.332 2.007zm8.867-28.658-.556 4.237-21.031-2.761.789-6.039c.639-4.863 3.806-7.327 7.621-6.822 1.397.166 2.698.798 3.692 1.793.995.995 1.626 2.296 1.791 3.693l9.072-4.588-.671 5.077-9.334 4.279z"/><path d="m166.101 183.624-4.704-2.876 1.141 5.394z"/><path d="m160.694 30.9429-4.55 3.1058 3.684 2.3358z"/><path d="m80.037 21.8428-.377 5.5023 4.1156-1.4571z"/><path d="m28.3331 150.687 2.0355 3.86 3.4573-4.292z"/><path d="m105.252 19.3342c.492.0473.988-.0121 1.456-.174.467-.162.894-.4228 1.251-.7645.358-.3418.637-.7566.82-1.2162.182-.4595.264-.9531.238-1.4469-.025-.4939-.156-.9765-.385-1.415s-.549-.8225-.939-1.126c-.391-.3035-.842-.5193-1.323-.6327-.482-.1133-.982-.1216-1.467-.0243l-1.3.0671.345 6.8092z"/><path d="m197.086 117.957c-1.953-.255-3.515 1.007-3.835 3.442l-.172 1.278 6.758.888.176-1.294c.124-.478.144-.976.06-1.462s-.271-.949-.548-1.357-.638-.753-1.058-1.01c-.421-.258-.892-.423-1.381-.485z"/></g></svg>