<svg width="21" height="20" viewBox="0 0 21 20" fill="none" xmlns="http://www.w3.org/2000/svg">
<path d="M15.1667 4.66675H16.5M6.5 0.666748H14.5C15.9145 0.666748 17.271 1.22865 18.2712 2.22885C19.2714 3.22904 19.8333 4.58559 19.8333 6.00008V14.0001C19.8333 15.4146 19.2714 16.7711 18.2712 17.7713C17.271 18.7715 15.9145 19.3334 14.5 19.3334H6.5C5.08551 19.3334 3.72896 18.7715 2.72876 17.7713C1.72857 16.7711 1.16667 15.4146 1.16667 14.0001V6.00008C1.16667 4.58559 1.72857 3.22904 2.72876 2.22885C3.72896 1.22865 5.08551 0.666748 6.5 0.666748ZM10.5 14.0001C9.43913 14.0001 8.42172 13.5787 7.67157 12.8285C6.92143 12.0784 6.5 11.0609 6.5 10.0001C6.5 8.93922 6.92143 7.9218 7.67157 7.17165C8.42172 6.42151 9.43913 6.00008 10.5 6.00008C11.5609 6.00008 12.5783 6.42151 13.3284 7.17165C14.0786 7.9218 14.5 8.93922 14.5 10.0001C14.5 11.0609 14.0786 12.0784 13.3284 12.8285C12.5783 13.5787 11.5609 14.0001 10.5 14.0001Z" stroke="white" stroke-width="1.06667"/>
</svg>
