<svg fill="none" height="438" viewBox="0 0 438 438" width="438" xmlns="http://www.w3.org/2000/svg" xmlns:xlink="http://www.w3.org/1999/xlink"><clipPath id="a"><path d="m0 0h438v438h-438z"/></clipPath><g clip-path="url(#a)"><path d="m218.996 0c-120.9479 0-218.996 98.0481-218.996 218.996 0 120.948 98.0481 218.997 218.996 218.997 120.948 0 218.997-98.049 218.997-218.997 0-120.9479-98.041-218.996-218.997-218.996zm-96.676 281.815.604 4.465-25.748 3.459-.5964-4.473c-5.7175-42.654 37.5624-66.128 76.0874-84.533-20.187-8.483-34.805-26.493-38.957-47.992-6.858-35.535 16.385-69.8999 51.92-76.758 4.175-.8125 8.416-1.2225 12.665-1.23 30.444-.0521 56.863 20.9768 63.646 50.653l1.029 4.391-25.3 5.911-1.029-4.398c-4.085-17.906-20.023-30.601-38.39-30.578-2.58 0-5.159.253-7.693.738-18.584 3.615-32.017 19.881-32.04 38.815-.029 21.871 17.675 39.62 39.546 39.65 2.55 0 5.084-.246 7.589-.723 5.449-1.044 10.607-3.235 15.147-6.426l3.012-2.109 17.958 16.988-2.46 3.228c-8.446 11.04-26.501 19.575-47.381 29.438-32.62 15.4-73.21 34.573-69.617 61.476zm219.6-121.239c-.224 37.757-40.5 59.449-76.594 76.691 20.186 8.483 34.797 26.493 38.942 47.984 6.858 35.536-16.385 69.9-51.921 76.759-4.174.805-8.408 1.215-12.657 1.215-30.437.059-56.863-20.97-63.646-50.638l-1.029-4.391 25.308-5.911 1.029 4.398c4.085 17.905 20.015 30.6 38.382 30.578 2.58 0 5.152-.254 7.686-.738 18.584-3.616 32.009-19.874 32.039-38.808.03-21.871-17.667-39.62-39.538-39.658-2.542 0-5.084.254-7.581.731-5.449 1.044-10.615 3.228-15.155 6.411l-3.012 2.117-17.965-17.004 2.468-3.22c8.445-11.033 26.5-19.56 47.38-29.438 32.62-15.408 73.195-34.588 69.617-61.476l-.604-4.473 25.755-3.444.581 4.465c.328 2.393.492 4.809.515 7.224z" fill="#fff" fill-opacity=".25"/></g></svg>