<svg xmlns="http://www.w3.org/2000/svg" viewBox="0 0 249.144 49.631">
  <defs>
    <style>
      .a {
        fill: #fff;
      }
    </style>
  </defs>
  <g>
    <g>
      <path class="a" d="M152.557,13.416l-.1-.769-4.429.594.1.769c.617,4.625-6.365,7.924-11.976,10.575-3.594,1.7-6.7,3.166-8.152,5.064l-.424.555,3.089,2.925.518-.364a6.782,6.782,0,0,1,2.609-1.105,6.99,6.99,0,0,1,1.3-.125,6.812,6.812,0,0,1,1.289,13.5,6.961,6.961,0,0,1-1.323.128,6.765,6.765,0,0,1-6.6-5.261l-.177-.756-4.352,1.017.176.756a11.213,11.213,0,0,0,10.951,8.713,11.568,11.568,0,0,0,2.178-.21,11.274,11.274,0,0,0,2.231-21.462C146.1,24.793,153.541,20.756,152.557,13.416Z"/>
      <path class="a" d="M126.841,25.047c3.594-1.7,6.7-3.166,8.152-5.065l.424-.555L132.328,16.5l-.518.365a6.758,6.758,0,0,1-2.607,1.1,6.915,6.915,0,0,1-1.3.125,6.812,6.812,0,0,1-1.291-13.5,7.05,7.05,0,0,1,1.323-.127,6.764,6.764,0,0,1,6.6,5.26l.178.756,4.351-1.017-.176-.755A11.213,11.213,0,0,0,127.937,0a11.461,11.461,0,0,0-2.178.211,11.273,11.273,0,0,0-2.231,21.461c-6.628,3.167-14.073,7.2-13.09,14.542l.1.77,4.429-.593-.1-.769C114.249,31,121.23,27.7,126.841,25.047Z"/>
    </g>
    <g>
      <g>
        <path class="a" d="M32.119,16.067v17.32H27.165V31.636A6.6,6.6,0,0,1,22.1,33.8c-3.986,0-6.258-2.718-6.258-7V16.7l5.066-.633V26.161c0,2.048,1.192,3.24,2.943,3.24a3.125,3.125,0,0,0,3.166-3.426V16.7Z"/>
        <path class="a" d="M35.137,32.307l.595-3.762A9.537,9.537,0,0,0,40.276,30c1.267,0,2.012-.6,2.012-1.565,0-.745-.41-1.3-2.049-1.788l-.67-.261c-2.57-.893-4.1-2.681-4.1-5.251,0-2.98,2.346-5.215,6-5.215A12.831,12.831,0,0,1,46.5,17.073l-.634,3.8a9.939,9.939,0,0,0-4.171-1.229c-1.118,0-1.676.6-1.676,1.341,0,.67.373,1.192,1.751,1.676l.745.26c3.016,1.043,4.544,2.757,4.544,5.4,0,3.278-2.5,5.513-6.295,5.513A11.775,11.775,0,0,1,35.137,32.307Z"/>
        <path class="a" d="M56,20.5v6.37a2.073,2.073,0,0,0,2.235,2.346,6.754,6.754,0,0,0,2.161-.447v4.246a8.725,8.725,0,0,1-3.39.633c-4.022,0-6.071-2.383-6.071-6.145v-7H48.285l.633-4.1H50.93V13.236L56,10.666V16.4h4.4v4.1Z"/>
        <path class="a" d="M62.737,10.48a3.113,3.113,0,1,1,3.091,2.98A3.045,3.045,0,0,1,62.737,10.48Zm.522,6.22,5.1-.633V33.35h-5.1Z"/>
        <path class="a" d="M71.3,24.857a9.005,9.005,0,0,1,9.311-8.939,11.432,11.432,0,0,1,4.47.931l-.708,4.358a7.4,7.4,0,0,0-3.464-.968,4.619,4.619,0,1,0,.038,9.237,7.557,7.557,0,0,0,3.65-1.043l.633,4.358a10.6,10.6,0,0,1-4.582,1.043A9.022,9.022,0,0,1,71.3,24.857Z"/>
        <path class="a" d="M102.069,27.278,103.522,31a12.142,12.142,0,0,1-7.672,2.831c-5.4,0-9.387-3.911-9.387-8.939a8.9,8.9,0,0,1,9.126-8.977c4.432,0,8.045,2.905,8.492,8.045L91.715,27.949A4.841,4.841,0,0,0,95.887,30,9.251,9.251,0,0,0,102.069,27.278ZM90.9,24.336l8.231-2.682a3.9,3.9,0,0,0-3.5-1.937A4.785,4.785,0,0,0,90.9,24.336Z"/>
        <path class="a" d="M7.535,7.575V24c0,3.465-1.415,4.806-3.911,4.806a6.326,6.326,0,0,1-2.543-.563L0,32.867a10.533,10.533,0,0,0,4.406.967c5.029,0,8.418-3.241,8.418-9.163V6.942Z"/>
      </g>
      <g>
        <path class="a" d="M177.782,18.565c0,5.327-4.246,9.2-10.056,9.2h-2.384V33.83h-5.289V9.365h7.673C173.536,9.365,177.782,13.239,177.782,18.565Zm-5.364,0c0-2.719-2.16-4.618-5.139-4.618h-1.937v9.237h1.937C170.258,23.184,172.418,21.247,172.418,18.565Z"/>
        <path class="a" d="M194.916,27.367l1.452,3.724a12.137,12.137,0,0,1-7.672,2.831c-5.4,0-9.387-3.911-9.387-8.939a8.9,8.9,0,0,1,9.126-8.977c4.432,0,8.045,2.905,8.492,8.046l-12.366,3.985a4.841,4.841,0,0,0,4.172,2.049A9.249,9.249,0,0,0,194.916,27.367Zm-11.174-2.943,8.231-2.681a3.9,3.9,0,0,0-3.5-1.937A4.785,4.785,0,0,0,183.742,24.424Z"/>
        <path class="a" d="M209.586,33.438l-.149-1.117a6.367,6.367,0,0,1-4.321,1.6,6.1,6.1,0,0,1-6.332-6.034c0-3.39,2.719-6,6.482-6a7.123,7.123,0,0,1,3.873,1.229v-.6c0-1.863-.931-2.831-3.688-2.831a12.728,12.728,0,0,0-4.059.708l.6-3.688a17.345,17.345,0,0,1,4.432-.6c4.805,0,7.449,2.011,7.449,6.108v8.158l.15,3.054Zm-.3-5.662a2.71,2.71,0,0,0-2.868-2.644,2.648,2.648,0,1,0,0,5.289A2.711,2.711,0,0,0,209.288,27.776Z"/>
        <path class="a" d="M216.366,24.946a9.005,9.005,0,0,1,9.311-8.94,11.453,11.453,0,0,1,4.47.931l-.708,4.358a7.4,7.4,0,0,0-3.464-.968,4.619,4.619,0,1,0,.037,9.237,7.554,7.554,0,0,0,3.65-1.043l.634,4.358a10.587,10.587,0,0,1-4.582,1.043A9.022,9.022,0,0,1,216.366,24.946Z"/>
        <path class="a" d="M247.132,27.367l1.452,3.724a12.134,12.134,0,0,1-7.672,2.831c-5.4,0-9.386-3.911-9.386-8.939a8.9,8.9,0,0,1,9.126-8.977c4.431,0,8.045,2.905,8.492,8.046l-12.366,3.985a4.838,4.838,0,0,0,4.171,2.049A9.249,9.249,0,0,0,247.132,27.367Zm-11.174-2.943,8.232-2.681a3.9,3.9,0,0,0-3.5-1.937A4.785,4.785,0,0,0,235.958,24.424Z"/>
      </g>
    </g>
  </g>
</svg>
