<svg xmlns="http://www.w3.org/2000/svg" viewBox="0 0 145.113 56.523">
  <defs>
    <style>
      .a {
        fill: #fff;
      }
    </style>
  </defs>
  <g>
    <g>
      <path class="a" d="M145.029,21.759l-.1-.738-4.251.569.1.739c.592,4.439-6.11,7.606-11.5,10.151-3.45,1.631-6.431,3.039-7.825,4.861l-.408.533,2.966,2.808.5-.35a6.509,6.509,0,0,1,2.5-1.06,6.688,6.688,0,0,1,1.252-.12,6.539,6.539,0,0,1,1.238,12.958,6.746,6.746,0,0,1-1.27.123,6.493,6.493,0,0,1-6.34-5.051l-.17-.725-4.177.976.168.726a10.765,10.765,0,0,0,10.513,8.364,11.07,11.07,0,0,0,2.091-.2,10.822,10.822,0,0,0,2.141-20.6C138.826,32.68,145.973,28.8,145.029,21.759Z"/>
      <path class="a" d="M120.343,32.923c3.45-1.631,6.431-3.039,7.825-4.862l.408-.532-2.966-2.808-.5.35a6.483,6.483,0,0,1-2.5,1.06,6.539,6.539,0,0,1-2.491-12.838,6.737,6.737,0,0,1,1.27-.122,6.493,6.493,0,0,1,6.34,5.049l.17.726,4.177-.976-.168-.725A10.765,10.765,0,0,0,121.4,8.88a11.109,11.109,0,0,0-2.091.2,10.822,10.822,0,0,0-2.141,20.6c-6.363,3.04-13.51,6.916-12.566,13.96l.1.738,4.251-.569-.1-.738C108.255,38.633,114.957,35.467,120.343,32.923Z"/>
    </g>
    <g>
      <g>
        <path class="a" d="M32.119,9.125v17.32H27.165V24.694a6.6,6.6,0,0,1-5.065,2.16c-3.986,0-6.258-2.718-6.258-7V9.758l5.066-.633V19.219c0,2.049,1.192,3.24,2.943,3.24a3.125,3.125,0,0,0,3.166-3.426V9.758Z"/>
        <path class="a" d="M35.137,25.365l.595-3.762a9.527,9.527,0,0,0,4.544,1.453c1.267,0,2.012-.6,2.012-1.565,0-.745-.41-1.3-2.049-1.788l-.67-.261c-2.57-.893-4.1-2.681-4.1-5.251,0-2.98,2.346-5.215,6-5.215A12.831,12.831,0,0,1,46.5,10.131l-.634,3.8A9.939,9.939,0,0,0,41.692,12.7c-1.118,0-1.676.6-1.676,1.341,0,.67.373,1.192,1.751,1.676l.745.261c3.016,1.042,4.544,2.756,4.544,5.4,0,3.278-2.5,5.513-6.295,5.513A11.775,11.775,0,0,1,35.137,25.365Z"/>
        <path class="a" d="M56,13.558v6.369a2.072,2.072,0,0,0,2.235,2.346,6.754,6.754,0,0,0,2.161-.447v4.246a8.724,8.724,0,0,1-3.39.634c-4.022,0-6.071-2.384-6.071-6.146v-7H48.285l.633-4.1H50.93V6.294L56,3.725V9.46h4.4v4.1Z"/>
        <path class="a" d="M62.737,3.538a3.111,3.111,0,0,1,6.22,0,3.113,3.113,0,0,1-6.22,0Zm.522,6.22,5.1-.633V26.408h-5.1Z"/>
        <path class="a" d="M71.3,17.916a9.005,9.005,0,0,1,9.311-8.94,11.45,11.45,0,0,1,4.47.931l-.708,4.358a7.4,7.4,0,0,0-3.464-.968,4.619,4.619,0,1,0,.038,9.237,7.557,7.557,0,0,0,3.65-1.043l.633,4.358a10.587,10.587,0,0,1-4.582,1.043A9.022,9.022,0,0,1,71.3,17.916Z"/>
        <path class="a" d="M102.069,20.336l1.453,3.725a12.142,12.142,0,0,1-7.672,2.831c-5.4,0-9.387-3.911-9.387-8.939a8.9,8.9,0,0,1,9.126-8.977c4.432,0,8.045,2.9,8.492,8.045L91.715,21.007a4.841,4.841,0,0,0,4.172,2.049A9.251,9.251,0,0,0,102.069,20.336ZM90.9,17.394l8.231-2.682a3.9,3.9,0,0,0-3.5-1.937A4.785,4.785,0,0,0,90.9,17.394Z"/>
        <path class="a" d="M7.535.633V17.059c0,3.464-1.415,4.805-3.911,4.805A6.326,6.326,0,0,1,1.081,21.3L0,25.925a10.533,10.533,0,0,0,4.406.967c5.029,0,8.418-3.241,8.418-9.163V0Z"/>
      </g>
      <g>
        <path class="a" d="M25.3,41.037c0,5.326-4.246,9.2-10.057,9.2H12.859V56.3H7.57V31.836h7.672C21.053,31.836,25.3,35.71,25.3,41.037Zm-5.364,0c0-2.72-2.16-4.619-5.14-4.619H12.859v9.237H14.8C17.775,45.655,19.935,43.718,19.935,41.037Z"/>
        <path class="a" d="M42.432,49.838l1.453,3.724a12.137,12.137,0,0,1-7.672,2.831c-5.4,0-9.387-3.911-9.387-8.939a8.9,8.9,0,0,1,9.126-8.977c4.432,0,8.045,2.906,8.492,8.046L32.078,50.508a4.839,4.839,0,0,0,4.172,2.049A9.249,9.249,0,0,0,42.432,49.838ZM31.259,46.9l8.231-2.681a3.9,3.9,0,0,0-3.5-1.937A4.784,4.784,0,0,0,31.259,46.9Z"/>
        <path class="a" d="M57.1,55.909l-.15-1.117a6.364,6.364,0,0,1-4.32,1.6A6.1,6.1,0,0,1,46.3,50.359c0-3.389,2.719-6,6.482-6a7.125,7.125,0,0,1,3.873,1.229V45c0-1.862-.931-2.831-3.688-2.831a12.757,12.757,0,0,0-4.06.708l.6-3.688a17.358,17.358,0,0,1,4.433-.6c4.805,0,7.449,2.011,7.449,6.109v8.157l.149,3.054Zm-.3-5.662A2.711,2.711,0,0,0,53.937,47.6a2.648,2.648,0,1,0,0,5.289A2.712,2.712,0,0,0,56.805,50.247Z"/>
        <path class="a" d="M63.882,47.417a9.006,9.006,0,0,1,9.312-8.94,11.431,11.431,0,0,1,4.469.932l-.708,4.357a7.41,7.41,0,0,0-3.463-.968,4.619,4.619,0,1,0,.037,9.237,7.566,7.566,0,0,0,3.65-1.042l.634,4.357a10.59,10.59,0,0,1-4.582,1.043A9.023,9.023,0,0,1,63.882,47.417Z"/>
        <path class="a" d="M94.649,49.838,96.1,53.562a12.137,12.137,0,0,1-7.672,2.831c-5.4,0-9.387-3.911-9.387-8.939a8.9,8.9,0,0,1,9.126-8.977c4.432,0,8.045,2.906,8.492,8.046L84.294,50.508a4.841,4.841,0,0,0,4.172,2.049A9.249,9.249,0,0,0,94.649,49.838ZM83.475,46.9l8.231-2.681a3.9,3.9,0,0,0-3.5-1.937A4.785,4.785,0,0,0,83.475,46.9Z"/>
      </g>
    </g>
  </g>
</svg>
