<svg viewBox="0 0 145.113 56.523" xmlns="http://www.w3.org/2000/svg" xmlns:xlink="http://www.w3.org/1999/xlink"><linearGradient id="a" gradientUnits="userSpaceOnUse" x1="117.55" x2="145.113" y1="38.772" y2="38.772"><stop offset=".004" stop-color="#359ea6"/><stop offset="1" stop-color="#017cb7"/></linearGradient><linearGradient id="b" x1="104.513" x2="132.076" xlink:href="#a" y1="26.631" y2="26.631"/><path d="m145.029 21.759-.1-.738-4.251.569.1.739c.592 4.439-6.11 7.606-11.5 10.151-3.45 1.631-6.431 3.039-7.825 4.861l-.408.533 2.966 2.808.5-.35a6.509 6.509 0 0 1 2.5-1.06 6.688 6.688 0 0 1 1.252-.12 6.539 6.539 0 0 1 1.238 12.958 6.746 6.746 0 0 1 -1.27.123 6.493 6.493 0 0 1 -6.34-5.051l-.17-.725-4.177.976.168.726a10.765 10.765 0 0 0 10.513 8.364 11.07 11.07 0 0 0 2.091-.2 10.822 10.822 0 0 0 2.141-20.6c6.369-3.043 13.516-6.923 12.572-13.964z" fill="url(#a)"/><path d="m120.343 32.923c3.45-1.631 6.431-3.039 7.825-4.862l.408-.532-2.966-2.808-.5.35a6.483 6.483 0 0 1 -2.5 1.06 6.539 6.539 0 0 1 -2.491-12.838 6.737 6.737 0 0 1 1.27-.122 6.493 6.493 0 0 1 6.34 5.049l.17.726 4.177-.976-.168-.725a10.765 10.765 0 0 0 -10.508-8.365 11.109 11.109 0 0 0 -2.091.2 10.822 10.822 0 0 0 -2.141 20.6c-6.363 3.04-13.51 6.916-12.566 13.96l.1.738 4.251-.569-.1-.738c-.598-4.438 6.104-7.604 11.49-10.148z" fill="url(#b)"/><path d="m32.119 9.125v17.32h-4.954v-1.751a6.6 6.6 0 0 1 -5.065 2.16c-3.986 0-6.258-2.718-6.258-7v-10.096l5.066-.633v10.094c0 2.049 1.192 3.24 2.943 3.24a3.125 3.125 0 0 0 3.166-3.426v-9.275z"/><path d="m35.137 25.365.595-3.762a9.527 9.527 0 0 0 4.544 1.453c1.267 0 2.012-.6 2.012-1.565 0-.745-.41-1.3-2.049-1.788l-.67-.261c-2.57-.893-4.1-2.681-4.1-5.251 0-2.98 2.346-5.215 6-5.215a12.831 12.831 0 0 1 5.031 1.155l-.634 3.8a9.939 9.939 0 0 0 -4.174-1.231c-1.118 0-1.676.6-1.676 1.341 0 .67.373 1.192 1.751 1.676l.745.261c3.016 1.042 4.544 2.756 4.544 5.4 0 3.278-2.5 5.513-6.295 5.513a11.775 11.775 0 0 1 -5.624-1.526z"/><path d="m56 13.558v6.369a2.072 2.072 0 0 0 2.235 2.346 6.754 6.754 0 0 0 2.161-.447v4.246a8.724 8.724 0 0 1 -3.39.634c-4.022 0-6.071-2.384-6.071-6.146v-7h-2.65l.633-4.1h2.012v-3.166l5.07-2.569v5.735h4.4v4.1z"/><path d="m62.737 3.538a3.111 3.111 0 0 1 6.22 0 3.113 3.113 0 0 1 -6.22 0zm.522 6.22 5.1-.633v17.283h-5.1z"/><path d="m71.3 17.916a9.005 9.005 0 0 1 9.311-8.94 11.45 11.45 0 0 1 4.47.931l-.708 4.358a7.4 7.4 0 0 0 -3.464-.968 4.619 4.619 0 1 0 .038 9.237 7.557 7.557 0 0 0 3.65-1.043l.633 4.358a10.587 10.587 0 0 1 -4.582 1.043 9.022 9.022 0 0 1 -9.348-8.976z"/><path d="m102.069 20.336 1.453 3.725a12.142 12.142 0 0 1 -7.672 2.831c-5.4 0-9.387-3.911-9.387-8.939a8.9 8.9 0 0 1 9.126-8.977c4.432 0 8.045 2.9 8.492 8.045l-12.366 3.986a4.841 4.841 0 0 0 4.172 2.049 9.251 9.251 0 0 0 6.182-2.72zm-11.169-2.942 8.231-2.682a3.9 3.9 0 0 0 -3.5-1.937 4.785 4.785 0 0 0 -4.731 4.619z"/><path d="m7.535.633v16.426c0 3.464-1.415 4.805-3.911 4.805a6.326 6.326 0 0 1 -2.543-.564l-1.081 4.625a10.533 10.533 0 0 0 4.406.967c5.029 0 8.418-3.241 8.418-9.163v-17.729z"/><path d="m25.3 41.037c0 5.326-4.246 9.2-10.057 9.2h-2.384v6.063h-5.289v-24.464h7.672c5.811 0 10.058 3.874 10.058 9.201zm-5.364 0c0-2.72-2.16-4.619-5.14-4.619h-1.937v9.237h1.941c2.975 0 5.135-1.937 5.135-4.618z"/><path d="m42.432 49.838 1.453 3.724a12.137 12.137 0 0 1 -7.672 2.831c-5.4 0-9.387-3.911-9.387-8.939a8.9 8.9 0 0 1 9.126-8.977c4.432 0 8.045 2.906 8.492 8.046l-12.366 3.985a4.839 4.839 0 0 0 4.172 2.049 9.249 9.249 0 0 0 6.182-2.719zm-11.173-2.938 8.231-2.681a3.9 3.9 0 0 0 -3.5-1.937 4.784 4.784 0 0 0 -4.731 4.618z"/><path d="m57.1 55.909-.15-1.117a6.364 6.364 0 0 1 -4.32 1.6 6.1 6.1 0 0 1 -6.33-6.033c0-3.389 2.719-6 6.482-6a7.125 7.125 0 0 1 3.873 1.229v-.588c0-1.862-.931-2.831-3.688-2.831a12.757 12.757 0 0 0 -4.06.708l.6-3.688a17.358 17.358 0 0 1 4.433-.6c4.805 0 7.449 2.011 7.449 6.109v8.157l.149 3.054zm-.3-5.662a2.711 2.711 0 0 0 -2.863-2.647 2.648 2.648 0 1 0 0 5.289 2.712 2.712 0 0 0 2.868-2.642z"/><path d="m63.882 47.417a9.006 9.006 0 0 1 9.312-8.94 11.431 11.431 0 0 1 4.469.932l-.708 4.357a7.41 7.41 0 0 0 -3.463-.968 4.619 4.619 0 1 0 .037 9.237 7.566 7.566 0 0 0 3.65-1.042l.634 4.357a10.59 10.59 0 0 1 -4.582 1.043 9.023 9.023 0 0 1 -9.349-8.976z"/><path d="m94.649 49.838 1.451 3.724a12.137 12.137 0 0 1 -7.672 2.831c-5.4 0-9.387-3.911-9.387-8.939a8.9 8.9 0 0 1 9.126-8.977c4.432 0 8.045 2.906 8.492 8.046l-12.365 3.985a4.841 4.841 0 0 0 4.172 2.049 9.249 9.249 0 0 0 6.183-2.719zm-11.174-2.938 8.231-2.681a3.9 3.9 0 0 0 -3.5-1.937 4.785 4.785 0 0 0 -4.731 4.618z"/></svg>