<svg xmlns="http://www.w3.org/2000/svg" viewBox="0 0 69.476 69.477">
  <defs>
    <style>
      .a {
        fill: #fff;
      }
    </style>
  </defs>
  <g>
    <path class="a" d="M60.03,10.9A34.754,34.754,0,1,0,58.575,60.03,34.794,34.794,0,0,0,60.03,10.9ZM63.8,28.623a2.038,2.038,0,0,1,2.32,1.944,3.8,3.8,0,0,1-.407,2.217l-1.3-.035a3.137,3.137,0,0,0,.532-2.005c-.082-.6-.472-.873-.895-.816-.347.048-.631.287-.751.953l-.077.422a2.022,2.022,0,0,1-1.763,1.885,1.966,1.966,0,0,1-2.2-1.854,4.031,4.031,0,0,1,.233-1.878l1.268.029a3.334,3.334,0,0,0-.343,1.711.723.723,0,0,0,.814.712c.358-.048.613-.283.736-.989l.078-.422A2.043,2.043,0,0,1,63.8,28.623ZM61.4,17.967l.794,1.1L57.439,21.7l1.227,2.216-1.226.451-1.783-3.22Zm-17.715,23.6A7.118,7.118,0,0,1,38.047,49.9a7.3,7.3,0,0,1-1.375.132,7.078,7.078,0,0,1-6.913-5.5l-.112-.477,2.748-.643.112.478a4.271,4.271,0,0,0,4.169,3.321,4.416,4.416,0,0,0,.835-.08,4.3,4.3,0,0,0-.815-8.523,4.381,4.381,0,0,0-.823.08,4.281,4.281,0,0,0-1.646.7l-.327.231-1.951-1.848.268-.349c.917-1.2,2.878-2.125,5.146-3.2,3.543-1.674,7.951-3.757,7.562-6.677l-.066-.486,2.8-.374.063.485a6.237,6.237,0,0,1,.055.785v.067c-.024,4.1-4.4,6.457-8.319,8.33A7.119,7.119,0,0,1,43.686,41.566ZM32.152,30.127a4.389,4.389,0,0,0,.824-.078,4.258,4.258,0,0,0,1.645-.7l.327-.229,1.95,1.845-.267.35c-.917,1.2-2.878,2.127-5.146,3.2-3.543,1.673-7.952,3.755-7.562,6.677l.066.485-2.8.376-.065-.487c-.621-4.632,4.081-7.182,8.265-9.181A7.118,7.118,0,0,1,30.8,18.835a7.308,7.308,0,0,1,1.376-.133,7.08,7.08,0,0,1,6.913,5.5l.112.477-2.748.642-.112-.478a4.27,4.27,0,0,0-4.169-3.321,4.519,4.519,0,0,0-.836.081,4.3,4.3,0,0,0,.816,8.522ZM56.875,12.338l1.025.888-4.026,3.655,1.7,1.876-1.089.72L52.013,16.75ZM51.723,7.9l-.9,7.571-1.25-.792.251-1.582-1.987-1.26-1.324.9-1.242-.788ZM39.209,3.48l3.663.744L42.82,5.433l-2.547-.518-.289,1.422,2.082.424-.241,1.18-2.081-.424-.316,1.552,2.649.539-.416,1.145-3.774-.767Zm-6.275-.209a2.135,2.135,0,0,1,2.532,1.961,1.964,1.964,0,0,1-1.381,2l1.924,2.534-1.6.081L32.565,7.213,32.7,9.931,31.368,10,31.03,3.367ZM24.158,4.79l5.392,5.391-1.4.493L27.066,9.5l-2.219.784-.11,1.6-1.387.49ZM15.8,9.471l.917.79L14.733,11.94l.939,1.107,1.62-1.373.779.918L16.45,13.966l1.024,1.208,2.062-1.748.641,1.036-2.938,2.49-4.292-5.065ZM5.93,21.561l3.853.8-2.36-3.57L11.7,19.1,9.108,16.136l.718-1.228,4.742,5.6L9.8,20.177l2.621,4.008-7.2-1.4ZM3.23,31.54a3.455,3.455,0,1,1,6.845.927,3.793,3.793,0,0,1-.581,1.6L8.2,33.688a2.9,2.9,0,0,0,.59-1.377,2.159,2.159,0,1,0-4.281-.557,2.9,2.9,0,0,0,.265,1.575l-1.345.036A3.91,3.91,0,0,1,3.23,31.54Zm.732,10.145,2.689-.478-.52-2.922-2.688.479-.236-1.327,6.461-1.149.394,1.3L7.4,38.059l.519,2.922,2.5-.445.394,1.3L4.2,43.012ZM8.406,52.37l-.69-1.307,1-1.248-1.1-2.079-1.595.123-.686-1.3,7.609-.306Zm5.946,1.119-2.7,2.772-.965-.939,4.827-4.959.283,6.043,2.632-2.7,1.077.823-4.887,5.021ZM25.1,59.5a3.246,3.246,0,0,0-1.274-1.153,2.183,2.183,0,0,0-2.983.978,2.15,2.15,0,0,0,1.007,2.925,2.452,2.452,0,0,0,.987.272l.609-1.244-1.337-.656.667-.95,2.284,1.118-1.487,3.033a4.6,4.6,0,0,1-2.334-.457,3.447,3.447,0,0,1-1.623-4.642,3.484,3.484,0,0,1,4.74-1.522,4.1,4.1,0,0,1,1.487,1.236Zm7.139,1.281-2.558-.449-.251,1.428,2.091.367-.209,1.186-2.091-.368-.273,1.56,2.66.467-.386,1.154-3.79-.665,1.149-6.536,3.678.646Zm13.554,3.563-1.2-2.958L43.6,65.122l-2.857-2.613.581,3.139-1.292.376-1.224-6.93,4.13,3.762L44.4,57.462l2.7,6.5Zm8.62-4.913L53.046,58.6l-1.92,1.357.328,1.567-1.2.847L48.968,54.86l6.654,3.717Zm5.9-6.23-3.762-.262,2.47,1.923-.828,1.063-5.177-4.032.7-1.161L56.11,52.6l-1.092-3.4.967-1.242,1.125,3.772,4.177.223Zm2.812-4.64-6.132-2.548,1.433-3.451,1.178.282-1,2.4,1.34.557.815-1.962,1.113.462-.816,1.962,1.464.609,1.037-2.5L64.6,45ZM65.9,39.592l-.174,1.326-6.582-.864.247-1.89c.2-1.522,1.191-2.293,2.385-2.135a1.961,1.961,0,0,1,1.716,1.717l2.839-1.436-.21,1.589L63.2,39.238Z"/>
    <polygon class="a" points="51.982 57.944 50.51 57.044 50.867 58.732 51.982 57.944"/>
    <polygon class="a" points="50.29 10.161 48.866 11.133 50.019 11.864 50.29 10.161"/>
    <polygon class="a" points="25.048 7.313 24.93 9.035 26.218 8.579 25.048 7.313"/>
    <polygon class="a" points="8.867 47.636 9.504 48.844 10.586 47.501 8.867 47.636"/>
    <path class="a" d="M32.939,6.528A1.077,1.077,0,1,0,32.83,4.4l-.407.021.108,2.131Z"/>
    <path class="a" d="M61.679,37.393c-.611-.08-1.1.315-1.2,1.077l-.054.4,2.115.278.055-.405A1.086,1.086,0,0,0,61.679,37.393Z"/>
  </g>
</svg>
