<svg viewBox="0 0 58.757 58.757" xmlns="http://www.w3.org/2000/svg"><path d="m29.378 0a29.379 29.379 0 1 0 29.379 29.378 29.378 29.378 0 0 0 -29.379-29.378zm-12.969 37.805.081.6-3.454.463-.08-.6c-.767-5.722 5.044-8.868 10.208-11.34a8.79 8.79 0 0 1 1.736-16.735 8.975 8.975 0 0 1 1.7-.165 8.743 8.743 0 0 1 8.538 6.8l.138.59-3.393.792-.138-.589a5.275 5.275 0 0 0 -5.15-4.1 5.586 5.586 0 0 0 -1.032.1 5.312 5.312 0 0 0 1.007 10.526 5.435 5.435 0 0 0 1.018-.1 5.236 5.236 0 0 0 2.032-.862l.4-.283 2.409 2.279-.331.433c-1.132 1.482-3.554 2.626-6.356 3.949-4.369 2.062-9.814 4.637-9.333 8.242zm29.46-16.263c-.031 5.065-5.433 7.974-10.275 10.288a8.791 8.791 0 0 1 -1.741 16.735 8.955 8.955 0 0 1 -1.7.163 8.741 8.741 0 0 1 -8.538-6.793l-.139-.589 3.395-.793.138.589a5.275 5.275 0 0 0 5.149 4.1 5.49 5.49 0 0 0 1.031-.1 5.312 5.312 0 0 0 -1.006-10.526 5.415 5.415 0 0 0 -1.016.1 5.267 5.267 0 0 0 -2.033.86l-.4.285-2.41-2.282.332-.432c1.133-1.48 3.554-2.623 6.356-3.949 4.376-2.067 9.82-4.64 9.339-8.247l-.081-.6 3.455-.462.078.6a7.85 7.85 0 0 1 .069.969z" fill="#fff"/></svg>