<svg width="165" height="195" viewBox="0 0 165 195" fill="none" xmlns="http://www.w3.org/2000/svg">
<path d="M164.656 52.7104L164.266 49.6891L146.988 52.0229L147.378 55.0442C149.785 73.2154 122.547 86.1769 100.657 96.5925C86.6367 103.272 74.5197 109.031 68.8552 116.488L67.2011 118.669L79.2518 130.161L81.2726 128.731C84.324 126.578 87.7924 125.099 91.4508 124.39C93.1224 124.067 94.8203 123.902 96.5223 123.898C103.13 123.903 109.499 126.387 114.386 130.865C119.274 135.343 122.33 141.494 122.958 148.118C123.586 154.743 121.741 161.365 117.783 166.694C113.825 172.022 108.038 175.675 101.551 176.939C99.8503 177.272 98.122 177.44 96.3896 177.442C90.4071 177.445 84.6007 175.402 79.9226 171.646C75.2444 167.891 71.972 162.646 70.6419 156.772L69.9515 153.801L52.9736 157.797L53.6602 160.767C55.8719 170.506 61.3048 179.199 69.0676 185.419C76.8303 191.64 86.4618 195.018 96.3818 195C99.2336 194.996 102.079 194.72 104.879 194.175C114.143 192.372 122.587 187.616 128.962 180.609C135.337 173.603 139.305 164.717 140.281 155.264C141.257 145.812 139.188 136.294 134.38 128.117C129.572 119.939 122.281 113.536 113.582 109.853C139.466 97.4097 168.495 81.5486 164.656 52.7104Z" fill="white" fill-opacity="0.25"/>
<path d="M64.3338 98.4076C78.3546 91.7284 90.4716 85.9686 96.1361 78.5076L97.7902 76.3271L85.7395 64.8272L83.7187 66.2612C80.6694 68.4084 77.2033 69.8813 73.5484 70.583C71.877 70.9075 70.1789 71.0719 68.4768 71.0741C61.8686 71.0714 55.4985 68.5891 50.6094 64.1118C45.7203 59.6344 42.6629 53.4831 42.0338 46.8582C41.4047 40.2332 43.2491 33.6098 47.207 28.2804C51.165 22.951 56.9525 19.2978 63.4404 18.0338C65.1414 17.7042 66.8695 17.5371 68.6017 17.5348C74.5839 17.5301 80.3902 19.5726 85.0685 23.3276C89.7467 27.0825 93.0192 32.327 94.3494 38.2009L95.0438 41.1712L112.018 37.1755L111.331 34.2091C109.115 24.4744 103.68 15.7869 95.9176 9.57132C88.1553 3.35571 78.5263 -0.0191712 68.6095 8.19226e-05C65.7574 0.00286278 62.9123 0.280461 60.1127 0.829083C50.8474 2.6306 42.403 7.3858 36.0273 14.3922C29.6517 21.3985 25.6828 30.2844 24.7071 39.7371C23.7314 49.1898 25.8006 58.7078 30.609 66.8851C35.4173 75.0624 42.7099 81.4652 51.4092 85.1475C25.5523 97.5904 -3.49187 113.436 0.342978 142.282L0.733089 145.307L18.0114 142.977L17.6212 139.956C15.2103 121.796 42.4444 108.831 64.3338 98.4076Z" fill="white" fill-opacity="0.25"/>
</svg>
