<svg width="894" height="903" viewBox="0 0 894 903" fill="none" xmlns="http://www.w3.org/2000/svg">
<path d="M711.255 819.321C804.199 753.932 869.34 656.239 893.78 545.605L719.588 520.571C703.749 580.029 668.517 632.64 619.47 670.072C570.424 707.505 510.365 727.621 448.804 727.236C387.243 726.85 327.696 705.984 279.593 667.943C231.49 629.901 197.578 576.858 183.228 517.21C168.878 457.563 174.909 394.72 200.366 338.632C225.823 282.544 269.252 236.416 323.776 207.551C378.3 178.686 440.804 168.734 501.391 179.27C561.978 189.806 617.187 220.229 658.275 265.722L776.26 134.675C716.08 73.3618 639.462 30.6239 555.458 11.5109C471.453 -7.60215 383.572 -2.29215 302.196 26.8138C220.82 55.9198 149.349 107.606 96.2269 175.766C43.1039 243.926 10.5479 325.712 2.40695 411.462C-5.73505 497.213 10.876 583.346 50.279 659.685C89.682 736.024 150.23 799.38 224.771 842.27C299.311 885.16 384.729 905.79 470.934 901.72C557.139 897.66 640.53 869.06 711.255 819.321Z" fill="url(#paint0_linear_846_977)"/>
<defs>
<linearGradient id="paint0_linear_846_977" x1="818.041" y1="194.09" x2="81.846" y2="711.792" gradientUnits="userSpaceOnUse">
<stop stop-color="#C0116F"/>
<stop offset="1" stop-color="#6E4695"/>
</linearGradient>
</defs>
</svg>
