<svg width="201" height="200" viewBox="0 0 201 200" fill="none" xmlns="http://www.w3.org/2000/svg">
<rect x="201" y="200" width="201" height="200" transform="rotate(180 201 200)" fill="url(#paint0_linear_949_985)"/>
<g clip-path="url(#clip0_949_985)">
<g clip-path="url(#clip1_949_985)">
<path d="M125.03 41.423C120.315 36.421 114.223 32.9295 107.525 31.3897C100.826 29.85 93.8206 30.3312 87.3952 32.7726C80.9699 35.214 75.4127 39.5059 71.4265 45.1056C67.4403 50.7052 65.2041 57.3611 65.0006 64.2317C64.7971 71.1023 66.6355 77.8789 70.2834 83.7046C73.9312 89.5304 79.2246 94.1436 85.4943 96.961C91.7639 99.7783 98.7282 100.673 105.507 99.5327C112.285 98.392 118.573 95.2671 123.575 90.5529C130.274 84.2256 134.189 75.4994 134.462 66.2888C134.734 57.0783 131.342 48.1357 125.03 41.423ZM128.8 59.146C129.082 59.1063 129.37 59.1264 129.644 59.205C129.919 59.2835 130.173 59.4188 130.392 59.6021C130.611 59.7853 130.789 60.0124 130.914 60.2687C131.039 60.525 131.11 60.8048 131.12 61.09C131.212 61.8531 131.07 62.6261 130.713 63.3069L129.413 63.2719C129.812 62.6833 130 61.9763 129.945 61.267C129.863 60.667 129.473 60.394 129.05 60.451C128.703 60.499 128.419 60.738 128.299 61.404L128.222 61.826C128.194 62.2964 128.002 62.7421 127.68 63.0863C127.358 63.4305 126.926 63.6514 126.459 63.7109C126.191 63.7434 125.919 63.7203 125.661 63.6432C125.402 63.5661 125.162 63.4365 124.956 63.2626C124.749 63.0886 124.581 62.8741 124.461 62.6323C124.341 62.3904 124.272 62.1265 124.259 61.857C124.186 61.2213 124.266 60.5776 124.492 59.979L125.76 60.008C125.496 60.5377 125.377 61.1283 125.417 61.719C125.418 61.8211 125.44 61.922 125.483 62.0149C125.525 62.1078 125.587 62.1906 125.664 62.2579C125.741 62.3252 125.831 62.3754 125.929 62.4052C126.027 62.435 126.13 62.4438 126.231 62.431C126.589 62.383 126.844 62.148 126.967 61.442L127.045 61.02C127.079 60.554 127.272 60.1138 127.591 59.7728C127.911 59.4318 128.337 59.2106 128.8 59.146ZM126.4 48.49L127.194 49.59L122.439 52.223L123.666 54.439L122.44 54.89L120.657 51.67L126.4 48.49ZM108.685 72.09C109.041 73.9425 108.648 75.8608 107.59 77.4233C106.533 78.9857 104.899 80.0647 103.047 80.423C102.594 80.5103 102.133 80.5545 101.672 80.555C100.067 80.5579 98.5082 80.0152 97.252 79.0158C95.9959 78.0164 95.1168 76.6197 94.7589 75.055L94.6469 74.5779L97.3949 73.9349L97.5069 74.4129C97.7223 75.3572 98.2523 76.2002 99.0098 76.8036C99.7673 77.407 100.707 77.7351 101.676 77.7339C101.956 77.7338 102.236 77.7071 102.511 77.6539C103.562 77.4523 104.5 76.8658 105.142 76.0091C105.784 75.1524 106.083 74.0872 105.981 73.0216C105.879 71.9561 105.384 70.9668 104.591 70.2473C103.799 69.5278 102.766 69.1297 101.696 69.131C101.42 69.1316 101.144 69.1584 100.873 69.2109C100.281 69.3258 99.7202 69.5643 99.2269 69.9109L98.8999 70.1419L96.9489 68.2939L97.2169 67.945C98.1339 66.745 100.095 65.8199 102.363 64.7449C105.906 63.0709 110.314 60.988 109.925 58.068L109.859 57.582L112.659 57.208L112.722 57.693C112.757 57.9532 112.775 58.2154 112.777 58.478V58.545C112.753 62.645 108.377 65.002 104.458 66.875C105.537 67.3293 106.488 68.0428 107.225 68.9523C107.963 69.8618 108.464 70.9392 108.686 72.089L108.685 72.09ZM97.1519 60.65C97.4284 60.65 97.7043 60.6238 97.9759 60.572C98.5676 60.4577 99.1283 60.2191 99.6209 59.872L99.9479 59.643L101.898 61.488L101.631 61.838C100.714 63.038 98.7529 63.9649 96.4849 65.0379C92.9419 66.7109 88.5329 68.793 88.9229 71.715L88.9889 72.1999L86.1889 72.576L86.1239 72.089C85.5029 67.457 90.2049 64.9069 94.3889 62.9079C92.9812 62.3158 91.8014 61.2866 91.0236 59.9723C90.2457 58.6581 89.9112 57.1286 90.0694 55.6097C90.2275 54.0908 90.87 52.663 91.9019 51.5372C92.9338 50.4115 94.3004 49.6474 95.7999 49.358C96.2533 49.2702 96.7141 49.2257 97.1759 49.225C98.781 49.2223 100.339 49.7652 101.595 50.7645C102.851 51.7639 103.731 53.1603 104.089 54.725L104.201 55.202L101.453 55.844L101.341 55.366C101.126 54.4216 100.596 53.5786 99.8382 52.9751C99.0806 52.3716 98.1404 52.0436 97.1719 52.045C96.8913 52.0459 96.6114 52.0731 96.3359 52.126C95.2857 52.3288 94.3488 52.9157 93.7081 53.7721C93.0674 54.6286 92.7688 55.6931 92.8708 56.7578C92.9727 57.8225 93.4678 58.811 94.2594 59.5304C95.051 60.2497 96.0823 60.6481 97.1519 60.648V60.65ZM121.875 42.861L122.9 43.749L118.874 47.404L120.574 49.28L119.485 50L117.013 47.273L121.875 42.861ZM116.723 38.423L115.823 45.994L114.573 45.202L114.824 43.62L112.837 42.36L111.513 43.26L110.271 42.472L116.723 38.423ZM104.209 34.003L107.872 34.747L107.82 35.956L105.273 35.438L104.984 36.86L107.066 37.284L106.825 38.464L104.744 38.04L104.428 39.592L107.077 40.131L106.661 41.276L102.887 40.509L104.209 34.003ZM97.9339 33.794C98.2314 33.737 98.5376 33.744 98.8322 33.8145C99.1268 33.8851 99.403 34.0175 99.6425 34.2029C99.882 34.3884 100.079 34.6227 100.221 34.8903C100.363 35.1579 100.447 35.4527 100.466 35.755C100.494 36.1949 100.372 36.6314 100.122 36.9942C99.8714 37.357 99.5062 37.625 99.0849 37.755L101.009 40.289L99.4089 40.37L97.5649 37.736L97.6999 40.454L96.3679 40.523L96.0299 33.89L97.9339 33.794ZM89.1579 35.313L94.5499 40.704L93.1499 41.197L92.0659 40.023L89.8469 40.807L89.7369 42.407L88.3499 42.897L89.1579 35.313ZM80.7999 39.994L81.7169 40.784L79.7329 42.463L80.6719 43.57L82.2919 42.197L83.0709 43.115L81.4499 44.489L82.4739 45.697L84.5359 43.949L85.1769 44.985L82.2389 47.475L77.9469 42.41L80.7999 39.994ZM70.9299 52.084L74.7829 52.884L72.4229 49.314L76.6999 49.623L74.1079 46.659L74.8259 45.431L79.5679 51.031L74.7999 50.7L77.4209 54.708L70.2209 53.308L70.9299 52.084ZM68.2299 62.063C68.2795 61.6041 68.4205 61.1598 68.6446 60.7563C68.8688 60.3528 69.1715 59.9983 69.5349 59.7138C69.8983 59.4292 70.3151 59.2204 70.7606 59.0996C71.206 58.9787 71.6712 58.9484 72.1286 59.0103C72.586 59.0723 73.0263 59.2253 73.4236 59.4602C73.8209 59.6951 74.1671 60.0073 74.4417 60.3783C74.7163 60.7492 74.9139 61.1715 75.0226 61.62C75.1314 62.0686 75.1492 62.5344 75.0749 62.9899C75.0049 63.5604 74.8063 64.1075 74.4939 64.59L73.1999 64.2109C73.5138 63.8115 73.7172 63.3367 73.7899 62.834C73.8328 62.5499 73.8186 62.2602 73.7482 61.9817C73.6777 61.7032 73.5523 61.4416 73.3795 61.2121C73.2066 60.9827 72.9897 60.7901 72.7414 60.6455C72.4932 60.501 72.2186 60.4075 71.9337 60.3704C71.6488 60.3333 71.3594 60.3535 71.0825 60.4297C70.8055 60.5059 70.5465 60.6366 70.3207 60.8141C70.0948 60.9917 69.9067 61.2125 69.7673 61.4637C69.6279 61.7149 69.5401 61.9914 69.5089 62.277C69.4481 62.8164 69.5399 63.3621 69.7739 63.8519L68.4289 63.888C68.2187 63.304 68.1505 62.6785 68.2299 62.063ZM68.9619 72.208L71.6509 71.7299L71.1309 68.8079L68.4429 69.2869L68.2069 67.9599L74.6679 66.8109L75.0619 68.111L72.3999 68.5819L72.9189 71.5039L75.4189 71.0589L75.8129 72.3589L69.1999 73.535L68.9619 72.208ZM73.4059 82.8929L72.7159 81.5859L73.7159 80.3379L72.6159 78.2589L71.0209 78.382L70.3349 77.0819L77.9439 76.7759L73.4059 82.8929ZM79.3519 84.0119L76.6519 86.784L75.6869 85.8449L80.5139 80.8859L80.7969 86.9289L83.4289 84.229L84.5059 85.0519L79.6189 90.0729L79.3519 84.0119ZM90.0999 90.0229C89.7865 89.5312 89.3464 89.1329 88.8259 88.8699C88.5668 88.7332 88.2829 88.6501 87.991 88.6254C87.6992 88.6007 87.4053 88.635 87.127 88.7263C86.8486 88.8175 86.5915 88.9638 86.3709 89.1566C86.1503 89.3493 85.9707 89.5844 85.8429 89.8479C85.7118 90.1052 85.6338 90.3861 85.6137 90.6741C85.5935 90.9621 85.6315 91.2512 85.7255 91.5242C85.8195 91.7972 85.9675 92.0484 86.1607 92.263C86.3538 92.4775 86.5882 92.651 86.8499 92.7729C87.1561 92.9321 87.4924 93.0247 87.8369 93.0449L88.4459 91.8009L87.1089 91.145L87.7759 90.195L90.0599 91.313L88.5729 94.346C87.7683 94.4009 86.9634 94.2433 86.2389 93.889C85.8248 93.6939 85.4536 93.4182 85.1472 93.0782C84.8407 92.7381 84.6051 92.3404 84.454 91.9083C84.3029 91.4762 84.2394 91.0183 84.2672 90.5613C84.295 90.1044 84.4135 89.6576 84.6159 89.2469C84.8235 88.8324 85.1118 88.4634 85.4638 88.1617C85.8158 87.8599 86.2246 87.6315 86.666 87.4897C87.1075 87.348 87.5728 87.2958 88.0347 87.3362C88.4966 87.3765 88.9457 87.5087 89.3559 87.7249C89.943 88.0125 90.4529 88.4363 90.8429 88.9609L90.0999 90.0229ZM97.2389 91.3039L94.6809 90.8549L94.4299 92.2829L96.5209 92.6499L96.3119 93.8359L94.2209 93.4679L93.9479 95.0279L96.6079 95.4949L96.2219 96.6489L92.4319 95.9839L93.5809 89.4479L97.2589 90.0939L97.2389 91.3039ZM110.793 94.867L109.593 91.909L108.6 95.645L105.743 93.0319L106.324 96.171L105.032 96.547L103.808 89.617L107.938 93.3789L109.4 87.985L112.1 94.485L110.793 94.867ZM119.413 89.9539L118.046 89.1229L116.126 90.4799L116.454 92.0469L115.254 92.8939L113.968 85.3829L120.622 89.0999L119.413 89.9539ZM125.313 83.7239L121.551 83.4619L124.021 85.3849L123.193 86.4479L118.016 82.416L118.716 81.2549L121.11 83.1229L120.018 79.7229L120.985 78.4809L122.11 82.2529L126.287 82.4759L125.313 83.7239ZM128.125 79.084L121.993 76.5359L123.426 73.0849L124.604 73.367L123.604 75.7669L124.944 76.3239L125.759 74.3619L126.872 74.8239L126.056 76.7859L127.52 77.395L128.557 74.895L129.6 75.5229L128.125 79.084ZM130.9 70.1149L130.726 71.4409L124.144 70.577L124.391 68.687C124.591 67.165 125.582 66.3939 126.776 66.5519C127.213 66.6039 127.62 66.8015 127.932 67.113C128.243 67.4245 128.44 67.8316 128.492 68.2689L131.331 66.833L131.121 68.4219L128.2 69.7609L130.9 70.1149Z" fill="white"/>
<path d="M116.982 88.467L115.51 87.567L115.867 89.255L116.982 88.467Z" fill="white"/>
<path d="M115.29 40.6839L113.866 41.6559L115.019 42.3869L115.29 40.6839Z" fill="white"/>
<path d="M90.0477 37.836L89.9297 39.558L91.2177 39.102L90.0477 37.836Z" fill="white"/>
<path d="M73.8667 78.159L74.5037 79.367L75.5857 78.024L73.8667 78.159Z" fill="white"/>
<path d="M97.9389 37.051C98.0929 37.0657 98.2483 37.0472 98.3946 36.9965C98.5408 36.9458 98.6744 36.8642 98.7862 36.7572C98.8981 36.6503 98.9855 36.5204 99.0427 36.3766C99.0998 36.2328 99.1253 36.0784 99.1174 35.9238C99.1095 35.7692 99.0684 35.6182 98.9968 35.481C98.9253 35.3437 98.825 35.2235 98.7028 35.1286C98.5806 35.0336 98.4394 34.9661 98.2887 34.9306C98.1381 34.8951 97.9816 34.8925 97.8299 34.923L97.4229 34.944L97.5308 37.075L97.9389 37.051Z" fill="white"/>
<path d="M126.679 67.9159C126.068 67.8359 125.579 68.2309 125.479 68.9929L125.425 69.3929L127.54 69.6709L127.595 69.2659C127.634 69.1165 127.64 68.9605 127.614 68.8084C127.587 68.6563 127.529 68.5115 127.442 68.3837C127.356 68.256 127.243 68.1482 127.111 68.0675C126.979 67.9868 126.832 67.9352 126.679 67.9159Z" fill="white"/>
</g>
</g>
<defs>
<linearGradient id="paint0_linear_949_985" x1="402" y1="300" x2="201" y2="300" gradientUnits="userSpaceOnUse">
<stop stop-color="#C0116F"/>
<stop offset="1" stop-color="#6E4695"/>
</linearGradient>
<clipPath id="clip0_949_985">
<rect width="69.476" height="69.477" fill="white" transform="translate(65 31)"/>
</clipPath>
<clipPath id="clip1_949_985">
<rect width="69.476" height="69.477" fill="white" transform="translate(65 30.5229)"/>
</clipPath>
</defs>
</svg>
