<svg fill="none" height="53" viewBox="0 0 637 53" width="637" xmlns="http://www.w3.org/2000/svg" xmlns:xlink="http://www.w3.org/1999/xlink"><clipPath id="a"><path d="m0 0h637v53h-637z"/></clipPath><g clip-path="url(#a)" fill="#fff"><path d="m342.542 29.1278h4.828l-2.414-5.6249z"/><path d="m508.254 29.1278h4.824l-2.41-5.6249z"/><path d="m192.684 29.1278h4.828l-2.414-5.6249z"/><path d="m128.107 18.8242h-1.44v7.5743h1.44c.542.0708 1.094.024 1.617-.137s1.005-.4327 1.415-.7966.738-.8118.961-1.3134c.223-.5017.337-1.0455.333-1.5949 0-2.181-1.609-3.7324-4.326-3.7324z"/><path d="m98.8187 29.1278h4.8283l-2.414-5.6249z"/><path d="m589.649 18.8242h-1.44v7.5743h1.44c.542.0708 1.094.024 1.617-.137s1.005-.4327 1.415-.7966.738-.8118.961-1.3134c.223-.5017.337-1.0455.334-1.5949 0-2.181-1.61-3.7324-4.327-3.7324z"/><path d="m0 0v53h637v-53zm36.5303 39.4312-7.509-15.2218-7.5455 15.2218-8.5806-24.579h4.9939l4.448 13.2317 6.672-13.6378 6.6801 13.6703 4.4278-13.2642h5.0263zm31.4636-1.0113h-13.6109v-23.5555h13.2066l.6712 4.2237h-9.1831v5.1579h7.5091v4.2765h-7.5091v5.6209h9.5511zm39.6281 0-2.249-5.2188h-8.2971l-2.2443 5.2188h-5.196l11.5974-24.4084 11.633 24.4084zm25.07 0-6.025-9.6618v9.6618h-4.727v-23.5555h6.737c1.06-.1482 2.139-.0681 3.166.235s1.978.8223 2.79 1.523c.811.7007 1.465 1.5669 1.918 2.541.452.9742.693 2.0339.707 3.1088.017 1.563-.489 3.0865-1.437 4.3261-.948 1.2395-2.284 2.1232-3.792 2.5091l6.337 9.341zm29.155 0h-13.603v-23.5555h13.211l.671 4.2237h-9.187v5.1579h7.509v4.2765h-7.509v5.6209h9.555zm39.628 0-2.244-5.2188h-8.29l-2.248 5.2188h-5.192l11.597-24.4084 11.629 24.4084zm27.311 0h-12.981v-23.2997l4.76-.5686v19.2872h8.948zm23.691 0h-12.98v-23.2997l4.76-.5686v19.2872h8.948zm34.986.4711c-1.635.042-3.261-.2462-4.782-.8475-1.522-.6013-2.908-1.5034-4.075-2.6529-1.168-1.1495-2.094-2.5228-2.723-4.0385-.629-1.5158-.949-3.143-.94-4.7852.009-1.6421.346-3.2658.992-4.7745s1.586-2.8718 2.767-4.0084c1.18-1.1366 2.575-2.0234 4.103-2.608s3.157-.8549 4.791-.7949c2.03-.0159 4.037.4327 5.868 1.3118l-.704 4.7151c-1.542-.9238-3.299-1.4239-5.095-1.4498-1.001 0-1.993.1981-2.918.583-.926.3849-1.766.9491-2.474 1.6604-.709.7113-1.27 1.5557-1.654 2.485-.383.9293-.58 1.9253-.58 2.9312s.197 2.0019.58 2.9312c.384.9293.945 1.7737 1.654 2.4849.708.7113 1.548 1.2755 2.474 1.6604.925.385 1.917.5831 2.918.5831 1.918-.0316 3.788-.6029 5.398-1.6489l.724 4.7355c-1.944 1.0017-4.098 1.5251-6.284 1.527zm36.797-.4711h-4.735v-9.6984h-10.493v9.6984h-4.76v-23.2997l4.76-.5686v9.5928h10.493v-9.0242l4.759-.5686zm27.093 0-2.249-5.2188h-8.301l-2.249 5.2188h-5.196l11.598-24.4084 11.633 24.4084zm34.682 1.0113-15.609-14.7466v13.7353h-4.763v-24.5749l15.621 14.6775v-13.4023l4.759-.5686zm30.796-2.7292c-2.466 1.4308-5.263 2.1857-8.111 2.189-1.617.0243-3.222-.2749-4.722-.88-1.5-.6052-2.865-1.5042-4.015-2.6447-1.151-1.1405-2.064-2.4996-2.686-3.9981-.623-1.4986-.941-3.1065-.939-4.7301.014-1.6456.355-3.272 1.003-4.7836.647-1.5117 1.589-2.8784 2.769-4.0199s2.576-2.035 4.104-2.628 3.159-.8737 4.797-.8255c2.309.0017 4.585.5587 6.636 1.6245l-.704 4.5446c-1.759-1.0745-3.772-1.6552-5.831-1.6814-1.035-.0316-2.065.1464-3.03.5235-.965.377-1.845.9454-2.586 1.6712-.742.7259-1.33 1.5942-1.73 2.5534-.401.9591-.604 1.9894-.6 3.0293-.015 1.0239.175 2.0405.559 2.989.384.9486.955 1.8097 1.678 2.5321.722.7224 1.582 1.2912 2.529 1.6726.946.3814 1.959.5674 2.978.5472 1.219.0296 2.43-.2002 3.554-.6742v-4.9223h-5.256l.639-4.0613h8.981zm24.562 1.7179h-13.607v-23.5555h13.206l.671 4.244h-9.187v5.1376h7.509v4.2765h-7.509v5.6209h9.555zm44.605 0-1.14-11.2782-7.073 11.7493-7.104-11.7493-1.133 11.2782h-4.759l2.713-24.847 10.291 16.9356 10.292-16.9356 2.713 24.847zm31.063 0-2.244-5.2188h-8.314l-2.248 5.2188h-5.192l11.597-24.4084 11.63 24.4084zm26.506 0-7.44-11.1117v11.1117h-4.751v-23.2997l4.759-.5686v10.7706l7.105-10.47h5.564l-8.087 11.3716 8.447 12.1839zm28.852 0h-13.587v-23.5555h13.207l.671 4.244h-9.187v5.1376h7.509v4.2765h-7.509v5.6209h9.555zm21.815 0-6.033-9.6618v9.6618h-4.703v-23.5555h6.737c1.06-.1482 2.14-.0681 3.167.235s1.978.8222 2.79 1.5228c.812.7007 1.466 1.5669 1.919 2.541s.695 2.0339.709 3.109c.016 1.5634-.491 3.087-1.439 4.3264-.949 1.2395-2.285 2.123-3.794 2.5088l6.337 9.341zm21.949.4711c-2.717-.0403-5.358-.9084-7.574-2.4895l.736-4.5446c1.871 1.69 4.258 2.6923 6.77 2.8429 2.147 0 3.287-1.2469 3.287-2.7617 0-1.2468-.704-2.3556-2.984-3.0988l-1.44-.4711c-1.634-.3244-3.104-1.2115-4.157-2.5082-1.053-1.2968-1.622-2.9219-1.609-4.595.012-.9593.221-1.9058.614-2.7805.392-.8746.96-1.6586 1.667-2.303.708-.6444 1.54-1.1355 2.445-1.4424.905-.307 1.864-.4233 2.815-.3418 2.262.0486 4.48.6375 6.47 1.7179l-.703 4.4431c-1.732-1.1842-3.746-1.885-5.835-2.0306-.359-.0453-.722-.014-1.068.092-.345.1059-.664.284-.936.5226s-.49.5322-.641.8617c-.151.3294-.231.6872-.234 1.0498 0 1.2793.703 2.2906 3.113 3.0663l1.444.4711c1.801.3853 3.388 1.4478 4.435 2.9698 1.047 1.5219 1.475 3.3883 1.196 5.217-.278 1.8286-1.242 3.4811-2.695 4.6191-1.452 1.1379-3.282 1.6753-5.116 1.5021z"/></g></svg>