<svg fill="none" height="25" viewBox="0 0 25 25" width="25" xmlns="http://www.w3.org/2000/svg"><path clip-rule="evenodd" d="m15.7793 17.2382c-1.8532 1.4808-4.2032 2.1957-6.56711 1.998-2.36394-.1977-4.56244-1.2931-6.14397-3.0612-1.58152-1.7681-2.426017-4.0746-2.360036-6.4459.065981-2.37128 1.037426-4.62729 2.714826-6.30469 1.67739-1.67739 3.9334-2.648841 6.30468-2.714822 2.37131-.065981 4.67781.778512 6.44591 2.360042 1.7681 1.58152 2.8635 3.78002 3.0612 6.14396.1977 2.36391-.5172 4.71391-1.998 6.56711l7.0895 7.0882c.1014.0944.1826.2082.239.3347s.0867.2631.0891.4016c.0025.1384-.023.276-.0749.4044s-.1291.245-.227.3429c-.0979.098-.2146.1752-.343.227-.1284.0519-.2659.0774-.4044.0749-.1384-.0024-.275-.0327-.4015-.0891-.1265-.0563-.2403-.1376-.3348-.2389zm-10.89821-2.1477c-1.00919-1.0093-1.69654-2.2951-1.97517-3.6949-.27863-1.39987-.13604-2.85088.40975-4.16969s1.47028-2.44623 2.65664-3.23977c1.18636-.79355 2.58133-1.21759 4.00862-1.21855 1.42727-.00096 2.82287.4212 4.01027 1.21315 1.1874.79194 2.1134 1.91812 2.661 3.23619.5475 1.31808.6921 2.7689.4153 4.16907-.2767 1.4002-.9623 2.687-1.9702 3.6976l-.0068.0069-.0069.0055c-1.3543 1.3511-3.1894 2.1094-5.1024 2.1084-1.91297-.001-3.74732-.7613-5.10011-2.1139z" fill="#fff" fill-rule="evenodd"/></svg>