<svg width="129" height="129" viewBox="0 0 129 129" fill="none" xmlns="http://www.w3.org/2000/svg">
<path d="M51.0625 83.764V45.236C51.0633 44.754 51.1937 44.281 51.4402 43.8667C51.6866 43.4524 52.0399 43.112 52.4631 42.8811C52.8863 42.6503 53.3638 42.5375 53.8455 42.5547C54.3273 42.5718 54.7955 42.7182 55.2013 42.9785L85.1722 62.2371C85.5517 62.4803 85.864 62.815 86.0803 63.2104C86.2965 63.6058 86.4099 64.0493 86.4099 64.5C86.4099 64.9507 86.2965 65.3942 86.0803 65.7896C85.864 66.185 85.5517 66.5197 85.1722 66.7629L55.2013 86.0269C54.7955 86.2872 54.3273 86.4336 53.8455 86.4507C53.3638 86.4678 52.8863 86.3551 52.4631 86.1243C52.0399 85.8934 51.6866 85.553 51.4402 85.1387C51.1937 84.7244 51.0633 84.2514 51.0625 83.7694V83.764Z" fill="white"/>
<g clip-path="url(#clip0_243_745)">
<path d="M107.821 23.6729C85.3073 -0.213761 47.5602 -1.33222 23.6732 21.1791C-0.213862 43.6921 -1.33234 81.4404 21.181 105.327C43.6943 129.214 81.4415 130.332 105.329 107.819C129.216 85.3062 130.334 47.5596 107.821 23.6729ZM114.269 54.0271C116.088 53.7805 117.906 54.8612 118.243 57.3551C118.444 58.8349 118.048 60.1503 117.546 61.154L115.326 61.0941C116.037 59.9328 116.381 58.7219 116.237 57.6617C116.097 56.6323 115.427 56.1664 114.705 56.264C114.11 56.3445 113.624 56.7556 113.418 57.8963L113.286 58.6191C112.903 60.7361 111.731 61.649 110.267 61.8477C108.4 62.1012 106.784 60.8286 106.493 58.6722C106.36 57.6908 106.49 56.5912 106.892 55.4556L109.064 55.5052C108.578 56.6374 108.367 57.6154 108.478 58.4375C108.598 59.3231 109.196 59.7496 109.873 59.6571C110.484 59.5748 110.921 59.1706 111.133 57.9631L111.265 57.2403C111.64 55.1747 112.839 54.2258 114.271 54.0305L114.269 54.0271ZM110.169 35.7755L111.529 37.6596L103.383 42.1711L105.484 45.9667L103.384 46.7391L100.33 41.2222L110.169 35.7755ZM102.417 26.1342L104.172 27.6569L97.2782 33.9171L100.193 37.1304L98.3282 38.3636L94.0907 33.6945L102.418 26.1359L102.417 26.1342ZM93.5923 18.5362L92.0456 31.5038L89.9045 30.1473L90.3345 27.4376L86.9311 25.2795L84.6633 26.8245L82.536 25.4748L93.5923 18.5362ZM72.158 10.964L78.4304 12.2383L78.3413 14.309L73.9787 13.4218L73.4837 15.8574L77.0515 16.5836L76.6387 18.6047L73.0744 17.8802L72.5331 20.5368L77.0704 21.46L76.3578 23.4211L69.8937 22.1074L72.158 10.964ZM61.41 10.606C64.0392 10.4707 65.6407 11.9043 65.7452 13.9648C65.8257 15.5542 64.9145 16.8371 63.3798 17.3869L66.677 21.7255L63.9347 21.8642L60.778 17.3561L61.0161 22.0115L58.7278 22.128L58.1488 10.7704L61.41 10.606ZM46.3766 13.2077L55.6138 22.4431L53.2228 23.2875L51.3592 21.2733L47.5585 22.6144L47.3683 25.3514L44.9926 26.189L46.3766 13.2077ZM32.0591 21.227L33.6298 22.5784L30.235 25.4559L31.8416 27.3503L34.6164 24.9986L35.9507 26.571L33.1759 28.9243L34.9298 30.9934L38.4617 27.9994L39.5613 29.7739L34.529 34.0388L27.1776 25.3634L32.0608 21.2253L32.0591 21.227ZM15.157 41.9313L21.7582 43.293L17.716 37.1783L25.04 37.7213L20.6003 32.6377L21.8302 30.5344L29.9524 40.1278L21.7788 39.5591L26.2681 46.424L13.934 44.0192L15.157 41.9313ZM10.5341 59.0216C10.9743 55.6388 13.8929 53.3471 17.1816 53.7719C20.4685 54.2001 22.7037 57.1769 22.2584 60.6094C22.1248 61.6405 21.7736 62.5774 21.2632 63.3481L19.052 62.699C19.5624 62.043 19.9495 61.2089 20.0625 60.3405C20.3366 58.2286 18.9509 56.4096 16.8732 56.1407C14.811 55.8718 13.0057 57.2763 12.7316 59.3882C12.6169 60.2737 12.7779 61.1797 13.1838 62.0841L10.8818 62.1458C10.5204 61.1489 10.3988 60.0681 10.5341 59.0199V59.0216ZM11.7879 76.3997L16.3919 75.5809L15.5013 70.5761L10.8955 71.3949L10.4913 69.122L21.5578 67.154L22.2327 69.3755L17.6748 70.1873L18.5655 75.1921L22.851 74.4299L23.5276 76.6514L12.1904 78.6691L11.7879 76.3962V76.3997ZM19.3997 94.7009L18.2178 92.4623L19.9358 90.3247L18.0568 86.7638L15.3231 86.9745L14.1481 84.7495L27.181 84.2254L19.3997 94.7009ZM29.5841 96.6192L24.9646 101.367L23.3117 99.7588L31.5795 91.265L32.0626 101.615L36.5707 96.984L38.4154 98.3937L30.0466 106.992L29.5841 96.6192ZM47.9935 106.911C47.4488 106.065 46.6729 105.36 45.8114 104.937C43.8553 103.979 41.6389 104.702 40.7003 106.612C39.7703 108.509 40.5153 110.685 42.4251 111.622C43.0092 111.908 43.5487 112.064 44.1157 112.089L45.1588 109.958L42.8687 108.833L44.0129 107.206L47.9233 109.123L45.3763 114.318C44.114 114.42 42.6495 114.158 41.3803 113.533C38.3743 112.062 37.1411 108.561 38.5987 105.584C40.058 102.607 43.6241 101.46 46.7192 102.975C47.7554 103.484 48.6478 104.246 49.2644 105.092L47.9935 106.911ZM60.2213 109.106L55.8399 108.336L55.41 110.782L58.9915 111.411L58.6336 113.442L55.052 112.814L54.5827 115.484L59.1406 116.286L58.4794 118.262L51.9878 117.123L53.9541 105.927L60.2539 107.035L60.2196 109.106H60.2213ZM37.5282 89.9239C23.5104 75.05 24.2076 51.5453 39.08 37.5277C53.9541 23.5102 77.4592 24.2073 91.4769 39.0795C105.495 53.9534 104.798 77.4582 89.9251 91.4757C75.051 105.493 51.5459 104.796 37.5282 89.9239ZM83.4369 115.208L81.3833 110.142L79.6824 116.542L74.7889 112.065L75.784 117.442L73.5711 118.086L71.4746 106.216L78.5485 112.66L81.0458 103.421L85.667 114.556L83.4386 115.205L83.4369 115.208ZM98.2015 106.795L95.86 105.366L92.5697 107.691L93.1315 110.375L91.0761 111.827L88.8734 98.9658L100.271 105.332L98.1997 106.793L98.2015 106.795ZM108.307 96.1242L101.862 95.6755L106.092 98.9692L104.674 100.788L95.8069 93.8839L97.0059 91.8953L101.106 95.088L99.2343 89.2679L100.892 87.1406L102.819 93.6013L109.974 93.9832L108.307 96.1242ZM113.124 88.1751L102.621 83.8126L105.077 77.9001L107.093 78.3831L105.383 82.4938L107.678 83.4478L109.074 80.0873L110.981 80.8786L109.583 84.2391L112.089 85.2805L113.867 81.0019L115.653 82.0793L113.122 88.1717L113.124 88.1751ZM117.87 72.8148L117.572 75.0859L106.298 73.6061L106.721 70.3689C107.064 67.7603 108.759 66.4414 110.806 66.7121C112.385 66.9176 113.482 68.0463 113.745 69.6529L118.606 67.1951L118.248 69.9167L113.247 72.2102L117.87 72.8165V72.8148Z" fill="white"/>
<path d="M94.0359 104.246L91.5146 102.705L92.1261 105.596L94.0359 104.246Z" fill="white"/>
<path d="M91.1378 22.4037L88.6987 24.0686L90.6736 25.3206L91.1378 22.4037Z" fill="white"/>
<path d="M47.9027 17.5257L47.7006 20.4751L49.9067 19.6958L47.9027 17.5257Z" fill="white"/>
<path d="M20.1875 86.5908L21.2786 88.6599L23.1318 86.3596L20.1875 86.5908Z" fill="white"/>
<path d="M61.4186 16.1811C62.7323 16.1126 63.4723 15.311 63.4175 14.2251C63.3627 13.17 62.5456 12.4626 61.2319 12.5294L60.5348 12.5654L60.7198 16.2154L61.4186 16.1811Z" fill="white"/>
<path d="M110.645 69.0466C109.599 68.9096 108.756 69.5862 108.586 70.8913L108.494 71.5833L112.118 72.0594L112.211 71.3658C112.38 70.0606 111.724 69.1905 110.645 69.0466Z" fill="white"/>
</g>
<defs>
<clipPath id="clip0_243_745">
<rect width="119" height="119" fill="white" transform="translate(5 5)"/>
</clipPath>
</defs>
</svg>
