<svg width="18" height="14" viewBox="0 0 18 14" fill="none" xmlns="http://www.w3.org/2000/svg">
<path d="M9.45333 0.333252C9.89833 0.335752 11.0117 0.346585 12.195 0.394085L12.615 0.412418C13.8058 0.468252 14.9958 0.564919 15.5867 0.729085C16.3742 0.950752 16.9925 1.59575 17.2017 2.41409C17.535 3.71409 17.5767 6.24909 17.5817 6.86325L17.5825 6.98992V7.13492C17.5767 7.74908 17.535 10.2849 17.2017 11.5841C16.99 12.4049 16.3708 13.0508 15.5867 13.2691C14.9958 13.4333 13.8058 13.5299 12.615 13.5858L12.195 13.6049C11.0117 13.6516 9.89833 13.6633 9.45333 13.6649L9.2575 13.6658H9.045C8.10333 13.6599 4.165 13.6174 2.91166 13.2691C2.125 13.0474 1.50583 12.4024 1.29666 11.5841C0.963331 10.2841 0.921664 7.74908 0.916664 7.13492V6.86325C0.921664 6.24909 0.963331 3.71325 1.29666 2.41409C1.50833 1.59325 2.1275 0.947418 2.9125 0.729918C4.165 0.380752 8.10416 0.338252 9.04583 0.333252H9.45333ZM7.5825 4.08325V9.91658L12.5825 6.99992L7.5825 4.08325Z" fill="white"/>
</svg>
